<?xml version="1.0" encoding="UTF-8" standalone="no"?>
<!-- Created with Inkscape (http://www.inkscape.org/) -->
<svg xmlns:svg="http://www.w3.org/2000/svg" xmlns="http://www.w3.org/2000/svg" xmlns:dc="http://purl.org/dc/elements/1.1/" xmlns:cc="http://web.resource.org/cc/" xmlns:rdf="http://www.w3.org/1999/02/22-rdf-syntax-ns#" version="1.0" width="416.28299" height="436.44" viewBox="0 0 416.283 436.44" id="Layer_1" xml:space="preserve"><defs id="defs218"/>


<g id="g5">
	<path d="M 209.527,145.652 C 210.426,136.184 211.434,125.636 212.262,113.864 C 213.09,101.876 214.17,88.808 214.674,75.092 C 215.034,61.376 215.034,47.372 214.674,32.396 L 214.674,32.396 L 219.534,31.496 L 219.534,31.496 C 219.714,47.336 219.606,62.096 219.21,76.604 C 218.742,91.076 217.842,106.7 217.086,117.788 C 216.258,128.696 215.358,136.724 214.386,142.016 L 214.386,142.016 C 212.767,143.204 211.147,144.428 209.527,145.652 L 209.527,145.652 z " style="fill-rule:evenodd;stroke:#000000;stroke-width:0.036;stroke-miterlimit:10" id="path7"/>
	<path d="M 211.039,143.24 C 211.723,134.348 212.335,124.952 213.163,114.476 C 213.847,103.892 215.071,94.352 215.575,80.852 C 215.971,67.28 216.079,51.908 215.899,33.908 L 215.899,33.908 L 218.598,33.008 L 218.598,33.008 C 218.743,45.716 218.598,57.848 218.31,70.232 C 217.914,82.544 217.266,94.28 216.51,106.268 C 215.79,118.148 214.782,129.38 213.775,140.792 L 213.775,140.792 C 212.875,141.584 211.975,142.412 211.039,143.24 L 211.039,143.24 z " style="fill:#42713a;fill-rule:evenodd;stroke:#000000;stroke-width:0.036;stroke-miterlimit:10" id="path9"/>
	<path d="M 165.607,298.399 C 171.475,299.515 176.983,300.378 182.275,301.135 C 187.459,301.819 193.003,302.502 197.107,302.647 C 201.067,302.611 202.435,300.918 206.503,301.459 C 210.607,301.928 216.151,303.98 221.335,305.671 C 226.339,307.22 231.343,308.911 236.779,311.144 C 242.142,313.304 247.651,315.968 253.447,318.992 L 253.447,318.992 L 252.835,314.78 L 252.835,314.78 C 243.223,310.46 235.087,307.076 228.283,304.484 C 221.299,301.784 215.251,301.928 211.939,299.084 C 208.699,296.204 209.167,292.496 208.626,287.276 C 207.87,281.948 207.834,275.755 207.69,267.296 C 207.402,258.62 207.438,248.504 207.402,236.12 L 207.402,236.12 L 203.478,239.144 L 203.478,239.144 C 203.514,253.616 203.478,264.524 203.766,272.444 C 203.946,280.22 204.522,282.776 204.666,286.088 C 204.666,289.328 204.882,290.192 204.054,292.137 C 203.118,294.08 202.578,296.349 199.518,297.573 C 196.35,298.581 190.734,298.761 185.586,298.509 C 180.33,298.186 174.858,297.321 168.63,295.774 L 168.63,295.774 C 167.623,296.636 166.615,297.499 165.607,298.399 L 165.607,298.399 z " style="fill-rule:evenodd;stroke:#000000;stroke-width:0.036;stroke-miterlimit:10" id="path11"/>
	<path d="M 204.379,239.144 L 206.503,237.919 L 206.503,237.919 C 206.431,243.68 206.431,249.691 206.503,256.1 C 206.539,262.472 206.503,269.923 206.791,276.079 C 206.863,282.163 206.935,288.355 207.691,292.423 C 208.411,296.239 209.167,297.968 211.327,299.695 C 213.415,301.423 216.907,301.747 220.434,303.043 C 223.962,304.268 228.498,305.527 232.243,306.968 C 235.77,308.264 238.722,309.488 241.927,310.928 C 245.095,312.26 248.227,313.663 251.323,315.14 L 251.323,315.14 L 251.934,317.587 L 251.934,317.587 C 246.823,314.671 241.674,312.188 236.491,309.991 C 231.163,307.831 225.403,306.067 220.722,304.555 C 215.79,302.863 211.506,300.991 208.303,300.307 C 205.171,299.622 203.983,299.947 202.255,300.307 C 200.383,300.523 199.915,301.387 197.395,301.531 C 194.659,301.531 191.779,301.135 186.811,300.631 C 181.807,300.056 175.723,299.192 168.019,298.184 L 168.019,298.184 L 170.467,296.996 L 170.467,296.996 C 175.615,298.148 180.511,298.796 185.299,299.084 C 189.979,299.372 195.631,299.553 198.943,298.508 C 202.183,297.284 204.019,295.952 204.991,292.137 C 205.891,288.141 204.811,282.633 204.667,275.469 C 204.379,268.233 204.127,255.489 204.055,249.441 C 203.983,243.355 204.091,239.972 204.379,239.144 L 204.379,239.144 z " style="fill:#42713a;fill-rule:evenodd;stroke:#000000;stroke-width:0.036;stroke-miterlimit:10" id="path13"/>
	<path d="M 416.203,324.787 C 410.515,326.479 405.367,328.855 400.471,332.059 C 395.612,335.227 392.587,339.475 387.079,343.687 C 381.391,347.827 373.759,353.263 366.955,356.647 C 360.115,359.851 354.031,362.515 346.471,363.271 C 338.767,363.847 327.463,362.731 321.307,360.895 C 315.152,358.951 311.875,356.071 309.679,352.399 C 307.339,348.691 306.692,344.299 307.591,339.079 L 307.591,339.079 C 301.831,337.676 296.612,336.235 291.499,334.76 C 286.351,333.176 281.599,331.699 277.099,330.043 L 277.099,330.043 C 276.776,334.399 276.847,338.18 277.171,341.384 C 277.459,344.552 278.143,347.108 279.079,349.196 L 279.079,349.196 C 284.767,348.692 288.907,350.816 291.499,355.964 C 294.055,360.969 295.207,371.948 294.559,379.473 C 293.767,386.889 292.291,393.765 287.215,400.641 C 281.923,407.553 271.663,414.141 263.816,420.261 C 255.967,426.2 248.48,431.529 240.776,436.389 L 240.776,436.389 C 243.872,430.845 245.744,424.653 246.248,417.525 C 246.68,410.325 244.556,402.585 243.764,393.873 C 242.828,385.089 240.92,374.145 241.388,365.613 C 241.821,357.009 242.972,347.865 246.788,342.753 C 250.603,337.497 259.351,334.941 264.14,334.797 C 268.857,334.69 272.277,337.029 274.832,341.961 L 274.832,341.961 C 274.4,340.27 274.148,338.434 274.076,336.31 C 274.004,334.078 274.076,331.846 274.435,329.182 L 274.435,329.182 C 271.267,331.665 268.064,332.566 264.679,331.881 C 261.116,331.089 256.183,328.425 254.059,325.005 C 251.864,321.585 250.747,317.302 252.259,311.613 C 253.736,305.709 258.991,296.781 263.024,290.517 C 267.019,284.252 272.528,279.285 276.236,274.353 C 279.836,269.385 281.924,266.181 284.876,260.853 C 287.792,255.345 290.672,249.081 293.66,241.773 L 293.66,241.773 C 295.028,248.252 296.9,254.409 299.276,260.672 C 301.58,266.864 305.828,272.408 307.736,278.853 C 309.679,285.296 311.227,291.885 310.58,299.013 C 309.643,306.033 305.756,315.969 302.804,320.901 C 299.817,325.761 295.928,327.273 293.228,328.209 C 290.42,329.073 288.728,326.77 286.604,326.157 C 284.409,325.509 282.537,324.825 280.592,324.249 L 280.592,324.249 L 279.153,327.093 L 279.153,327.094 C 281.709,327.957 285.056,329.073 289.197,330.442 C 293.373,331.738 298.125,333.286 303.848,335.086 L 303.848,335.086 C 302.697,330.694 303.308,327.059 305.684,323.891 C 308.025,320.687 310.76,318.887 317.924,316.258 C 325.052,313.559 339.92,308.446 348.092,307.87 C 356.156,307.258 358.712,310.462 366.164,312.622 C 373.508,314.602 383.876,317.878 392.264,319.966 C 400.651,322.052 408.535,323.527 416.203,324.787 L 416.203,324.787 z " style="fill-rule:evenodd;stroke:#000000;stroke-width:0.036;stroke-miterlimit:10" id="path15"/>
	<path d="M 412.351,325.184 C 409.831,325.364 407.059,326.444 403.891,328.423 C 400.652,330.295 397.196,333.716 393.236,336.884 C 389.24,340.052 384.74,343.831 380.132,347.251 C 375.38,350.6 370.052,354.02 365.264,356.539 C 360.476,358.844 356.264,360.535 351.8,361.615 C 347.3,362.587 342.836,362.983 338.408,362.803 C 333.836,362.515 328.4,361.399 324.727,360.571 C 320.984,359.743 318.356,358.771 316.267,357.655 C 313.999,356.359 313.028,354.811 311.839,353.155 C 310.615,351.535 309.679,350.131 309.175,347.827 C 308.635,345.415 308.528,342.428 308.707,338.863 L 308.707,338.863 C 305.935,338.323 302.623,337.387 298.627,336.343 C 294.559,335.227 288.619,333.391 284.839,332.202 C 280.987,330.906 278.071,329.934 275.947,328.998 L 275.947,328.998 C 276.775,329.07 277.315,329.143 277.855,328.927 C 278.251,328.782 278.647,328.351 278.754,327.918 L 278.754,327.918 C 283.578,329.574 288.15,331.122 292.614,332.418 C 297.006,333.715 301.218,334.902 305.25,335.838 L 305.25,335.838 C 304.314,334.11 304.098,332.202 304.458,330.259 C 304.746,328.242 305.106,326.082 307.338,323.922 C 309.534,321.582 313.818,319.099 317.67,317.299 C 321.378,315.534 325.338,314.635 329.838,313.338 C 334.231,311.935 340.134,309.811 344.238,309.198 C 348.269,308.551 350.646,308.478 354.137,309.27 C 357.629,309.954 361.23,312.15 364.793,313.374 C 368.213,314.526 370.445,314.887 374.981,316.254 C 379.481,317.551 386.716,319.891 391.829,321.187 C 396.761,322.267 401.261,322.915 404.789,323.563 C 408.211,324.176 410.731,324.716 412.351,325.184 L 412.351,325.184 z " style="fill:#42713a;fill-rule:evenodd;stroke:#000000;stroke-width:0.036;stroke-miterlimit:10" id="path17"/>
	<path d="M 293.443,245.228 C 293.623,247.999 294.415,251.132 295.674,254.912 C 296.97,258.692 299.094,263.156 301.074,267.476 C 302.802,271.616 305.178,275.468 306.69,280.003 C 308.202,284.396 309.894,289.075 309.965,294.043 C 309.821,299.012 308.309,304.951 306.545,309.775 C 304.709,314.527 301.757,319.603 299.633,322.519 C 297.473,325.183 295.709,325.723 294.197,326.371 C 292.577,326.911 292.793,326.839 290.525,326.3 C 288.113,325.724 284.837,324.644 280.264,323.06 L 280.264,323.06 C 279.58,323.636 278.932,324.356 278.464,325.22 C 277.888,326.047 277.672,327.596 277.24,328.064 C 276.844,328.352 276.88,327.02 275.944,327.416 C 274.719,327.668 272.74,329.576 270.832,330.225 C 268.816,330.909 266.836,331.088 265.036,331.053 C 263.236,330.693 262.084,329.937 260.464,328.929 C 258.808,327.92 256.612,326.876 255.424,324.969 C 254.092,322.88 253.193,320.504 253.3,317.156 C 253.481,313.736 254.344,309.272 256.288,305.024 C 258.088,300.668 261.184,295.844 264.172,291.668 C 267.124,287.492 270.58,283.856 273.712,280.221 C 276.736,276.548 279.58,273.273 282.244,269.42 C 284.764,265.316 286.924,260.456 288.868,256.389 C 290.743,252.319 292.219,248.647 293.443,245.228 L 293.443,245.228 z " style="fill:#42713a;fill-rule:evenodd;stroke:#000000;stroke-width:0.036;stroke-miterlimit:10" id="path19"/>
	<path d="M 277.891,322.087 C 274.328,321.871 271.412,321.115 268.999,319.676 C 266.551,318.163 264.067,315.68 263.635,313.627 C 263.203,311.468 263.995,309.415 266.299,307.184 L 266.299,307.184 C 263.528,308.948 262.123,310.892 262.087,312.872 C 262.051,314.816 264.031,317.48 265.94,319.064 C 267.776,320.503 270.799,321.872 272.923,322.339 C 274.867,322.879 276.523,322.699 277.891,322.087 L 277.891,322.087 z " style="fill-rule:evenodd;stroke:#000000;stroke-width:0.036;stroke-miterlimit:10" id="path21"/>
	<path d="M 280.051,320.611 C 277.243,317.947 275.299,315.463 273.931,313.015 C 272.564,310.531 271.915,308.227 271.988,305.958 L 271.988,305.958 C 272.384,303.223 272.851,300.99 273.391,299.263 C 273.86,297.462 274.507,296.311 275.192,295.519 L 275.192,295.519 L 281.887,292.891 L 281.887,292.891 C 280.771,292.71 279.583,292.855 278.467,293.179 C 277.279,293.502 276.019,294.006 274.831,294.834 L 274.831,294.834 C 273.643,293.502 272.815,292.278 272.347,291.019 C 271.771,289.759 271.736,288.571 271.843,287.455 L 271.843,287.455 C 271.591,289.003 271.484,290.371 271.915,291.703 C 272.167,292.963 272.959,294.079 273.894,295.052 L 273.894,295.052 C 273.031,296.528 272.455,298.039 272.023,299.984 C 271.518,301.784 271.302,303.836 271.231,306.14 L 271.231,306.14 C 269.934,305.096 268.89,303.728 268.243,301.892 C 267.523,300.092 267.055,297.824 266.983,295.232 L 266.983,295.232 C 266.226,296.923 266.226,298.76 266.838,300.884 C 267.45,302.936 268.782,305.131 270.834,307.615 L 270.834,307.615 C 271.338,310.387 272.202,312.8 273.822,314.995 C 275.407,317.228 277.351,318.919 280.051,320.611 L 280.051,320.611 z " style="fill-rule:evenodd;stroke:#000000;stroke-width:0.036;stroke-miterlimit:10" id="path23"/>
	<path d="M 283.507,320.503 C 285.343,320.359 287.143,320.035 289.051,319.531 C 290.959,318.919 292.795,318.163 294.847,317.119 L 294.847,317.119 C 295.351,317.515 295.891,318.019 296.864,318.344 C 297.8,318.74 298.771,318.955 300.176,319.28 L 300.176,319.28 C 298.772,318.524 297.764,317.84 297.008,317.372 C 296.18,316.904 295.928,317.156 295.569,316.184 C 295.065,314.923 294.129,312.404 294.417,310.856 C 294.741,309.308 295.641,308.192 297.405,307.22 L 297.405,307.22 C 295.317,307.507 293.949,308.371 293.445,309.955 C 292.941,311.503 293.157,313.519 294.237,316.291 L 294.237,316.291 C 292.401,317.119 290.6,317.947 288.837,318.631 C 286.999,319.352 285.271,319.928 283.507,320.503 L 283.507,320.503 z " style="fill-rule:evenodd;stroke:#000000;stroke-width:0.036;stroke-miterlimit:10" id="path25"/>
	<path d="M 283.327,318.235 C 284.695,314.131 285.703,310.783 286.207,308.047 C 286.675,305.239 286.747,303.295 286.423,301.819 L 286.423,301.819 C 284.407,300.919 283.148,299.983 282.211,299.011 C 281.311,297.931 280.879,296.958 281.059,295.807 L 281.059,295.807 C 281.599,297.21 282.427,298.254 283.4,299.082 C 284.408,299.838 285.416,300.378 286.856,300.559 L 286.856,300.559 C 287.971,296.922 288.799,294.006 289.339,291.811 C 289.771,289.579 289.915,288.067 289.771,287.275 L 289.771,287.275 C 289.555,286.087 289.087,285.115 288.368,283.962 C 287.468,282.738 285.776,281.227 285.236,280.687 C 284.66,280.111 284.66,280.111 285.236,280.687 L 285.236,280.687 C 283.723,281.443 282.752,282.739 282.032,284.179 C 281.311,285.582 280.988,287.527 281.059,289.615 L 281.059,289.615 C 280.303,287.959 280.303,286.519 280.663,284.899 C 281.131,283.279 281.959,281.731 283.543,280.111 L 283.543,280.111 C 283.327,279.139 282.823,278.815 282.031,278.743 C 281.203,278.636 280.087,279.176 278.682,279.968 L 278.682,279.968 C 279.222,278.636 280.05,277.772 281.023,277.663 C 281.959,277.411 282.714,277.699 284.407,278.959 C 286.027,280.184 288.043,282.199 290.598,285.151 L 290.598,285.151 C 291.138,283.963 292.147,282.883 294.018,281.767 C 295.783,280.579 299.922,277.987 301.29,278.418 C 302.514,278.706 302.226,281.874 302.082,284.034 C 301.938,286.194 301.722,288.822 300.606,291.343 C 299.381,293.719 297.473,296.131 294.881,298.578 L 294.881,298.578 C 295.493,300.45 296.717,301.675 298.409,301.962 C 300.137,302.215 302.189,301.818 304.997,300.486 L 304.997,300.486 C 304.241,301.386 303.377,301.89 302.009,302.394 C 300.641,302.79 298.517,303.51 297.15,303.041 C 295.746,302.501 294.593,301.241 293.694,299.262 L 293.694,299.262 L 289.95,301.314 L 289.95,301.314 C 292.758,298.974 295.026,297.066 296.61,295.446 C 298.194,293.826 298.698,293.25 299.526,291.631 C 300.21,289.794 300.894,286.95 301.181,285.042 C 301.433,283.135 302.081,280.687 301.326,280.183 C 300.426,279.571 298.05,280.471 296.43,281.371 C 294.666,282.091 292.578,283.027 291.678,284.863 C 290.742,286.663 291.823,289.219 291.174,292.135 C 290.49,294.943 289.231,298.147 287.538,301.746 L 287.538,301.746 C 288.222,304.122 288.222,306.642 287.538,309.45 C 286.819,312.188 285.415,315.067 283.327,318.235 L 283.327,318.235 z " style="fill-rule:evenodd;stroke:#000000;stroke-width:0.036;stroke-miterlimit:10" id="path27"/>
	<path d="M 301.543,278.743 C 301.795,277.591 301.579,276.403 301.039,275.035 C 300.499,273.559 299.491,272.191 298.159,270.499 L 298.159,270.499 C 298.879,271.795 299.527,273.02 300.102,274.459 C 300.679,275.863 301.111,277.195 301.543,278.743 L 301.543,278.743 z " style="fill-rule:evenodd;stroke:#000000;stroke-width:0.036;stroke-miterlimit:10" id="path29"/>
	<path d="M 317.851,340.699 C 321.704,342.643 325.988,344.3 331.244,345.667 C 336.464,346.928 342.26,348.728 348.632,348.728 C 354.788,348.656 361.196,347.72 368.144,345.631 L 368.144,345.631 C 365.624,346.783 363.069,347.684 360.332,348.331 C 357.596,348.979 354.68,349.375 351.728,349.519 L 351.728,349.519 C 354.176,349.878 355.76,350.958 356.336,352.615 C 356.912,354.307 356.624,356.431 355.328,359.419 L 355.328,359.419 C 355.544,357.476 355.616,355.963 355.544,354.739 C 355.4,353.443 355.436,352.831 354.68,352.075 C 353.852,351.283 352.52,350.527 350.684,349.951 L 350.684,349.951 C 347.768,350.419 344.636,350.384 341,349.844 C 337.364,349.268 333.512,348.188 329.156,346.604 L 329.156,346.604 C 329.336,349.052 330.092,351.392 331.82,353.48 C 333.44,355.64 335.851,357.368 339.055,359.204 L 339.055,359.204 C 336.175,358.16 334.015,357.08 332.431,355.82 C 330.847,354.488 330.055,353.264 329.48,351.716 C 328.759,350.167 328.328,348.367 328.183,346.459 L 328.183,346.459 C 325.843,345.812 323.935,345.02 322.171,344.083 C 320.443,343.111 319.003,342.031 317.851,340.699 L 317.851,340.699 z " style="fill-rule:evenodd;stroke:#000000;stroke-width:0.036;stroke-miterlimit:10" id="path31"/>
	<path d="M 312.127,341.743 C 312.451,345.884 313.135,349.087 314.179,351.643 C 315.223,354.091 316.555,355.747 318.32,356.611 L 318.32,356.611 C 316.196,356.863 314.683,355.819 313.639,353.335 C 312.559,350.815 312.055,346.999 312.127,341.743 L 312.127,341.743 z " style="fill-rule:evenodd;stroke:#000000;stroke-width:0.036;stroke-miterlimit:10" id="path33"/>
	<path d="M 311.659,337.604 C 317.131,338.432 323.503,338.755 331.063,338.576 C 338.586,338.288 349.962,337.028 356.586,336.345 C 363.138,335.588 367.674,334.941 370.338,334.256 L 370.338,334.256 C 371.634,335.912 373.254,337.172 374.802,338.181 C 376.315,339.08 378.151,339.693 379.914,340.017 L 379.914,340.017 C 377.898,339.477 376.17,338.792 374.73,337.821 C 373.181,336.777 372.066,335.625 371.093,334.077 L 371.093,334.077 C 373.362,333.789 376.854,333.141 381.965,331.989 C 387.041,330.801 393.341,329.253 401.261,327.201 L 401.261,327.201 C 392.154,329.253 383.297,331.054 374.009,332.601 C 364.685,334.149 356.549,335.409 346.146,336.38 C 335.707,337.136 324.259,337.676 311.659,337.604 L 311.659,337.604 z " style="fill-rule:evenodd;stroke:#000000;stroke-width:0.036;stroke-miterlimit:10" id="path35"/>
	<path d="M 317.131,335.479 C 319.831,333.247 322.999,331.411 326.779,329.971 C 330.558,328.531 334.663,327.487 339.523,326.838 L 339.523,326.838 C 338.947,328.53 338.875,329.935 339.306,331.338 C 339.739,332.67 340.567,333.822 341.934,334.939 L 341.934,334.939 C 340.89,333.499 340.386,332.095 340.134,330.727 C 339.954,329.25 340.027,327.991 340.638,326.551 L 340.638,326.551 C 343.302,325.687 346.038,325.723 348.991,326.803 C 351.944,327.883 354.967,329.754 358.207,332.815 L 358.207,332.815 C 358.423,332.203 358.063,331.338 356.983,330.223 C 355.795,328.998 354.174,327.666 351.691,325.939 L 351.691,325.939 C 354.39,323.67 356.262,321.727 357.703,319.819 C 359.107,317.911 360.295,316.003 359.899,314.635 C 359.323,313.195 357.487,312.042 354.39,311.179 L 354.39,311.179 C 356.731,312.582 358.206,313.807 358.674,315.139 C 358.998,316.435 358.567,316.903 357.235,318.775 C 355.903,320.539 353.886,322.807 351.043,325.723 L 351.043,325.723 C 350.179,325.219 349.027,324.786 347.875,324.571 C 346.687,324.283 345.211,324.175 343.735,324.247 L 343.735,324.247 C 343.339,321.8 343.77,319.711 344.886,317.983 C 346.038,316.147 347.731,314.851 350.395,313.699 L 350.395,313.699 C 348.163,314.239 346.506,314.887 345.426,315.499 C 344.202,316.003 344.058,316.075 343.59,317.516 C 343.014,319.028 342.762,321.331 342.439,324.572 L 342.439,324.572 C 340.279,324.788 338.371,325.22 336.714,325.58 C 334.914,325.904 333.546,326.444 332.214,326.912 L 332.214,326.912 C 332.826,323.852 333.943,321.44 335.418,319.532 C 336.93,317.624 338.658,316.328 341.034,315.644 L 341.034,315.644 C 340.062,315.428 339.054,315.572 337.866,316.22 C 336.641,316.795 335.345,317.768 333.978,319.136 L 333.978,319.136 C 333.509,317.911 332.646,317.119 331.385,316.472 C 330.053,315.787 328.398,315.535 326.274,315.428 L 326.274,315.428 C 328.614,316.075 330.341,316.688 331.601,317.407 C 332.753,318.092 333.438,318.884 333.509,319.639 L 333.509,319.639 C 332.537,321.618 331.961,323.202 331.637,324.535 C 331.314,325.795 331.278,326.659 331.53,327.271 L 331.53,327.271 C 326.994,328.891 323.61,330.331 321.234,331.735 C 318.823,333.14 317.455,334.255 317.131,335.479 L 317.131,335.479 z " style="fill-rule:evenodd;stroke:#000000;stroke-width:0.036;stroke-miterlimit:10" id="path37"/>
	<path d="M 351.367,347.287 C 353.239,346.891 354.571,346.171 355.795,344.839 C 356.911,343.507 357.631,341.707 358.099,339.44 L 358.099,339.44 C 357.236,341.492 356.192,343.003 355.112,344.408 C 353.995,345.667 352.699,346.676 351.367,347.287 L 351.367,347.287 z " style="fill-rule:evenodd;stroke:#000000;stroke-width:0.036;stroke-miterlimit:10" id="path39"/>
	<path d="M 366.487,331.951 L 370.951,328.891 L 370.951,328.891 C 374.299,329.179 376.963,328.962 379.087,328.243 C 381.175,327.451 383.047,325.723 383.587,324.428 C 383.983,323.024 383.407,321.619 381.715,320.072 L 381.715,320.072 C 382.507,321.584 382.867,322.808 382.652,323.888 C 382.4,324.824 381.824,325.436 380.528,326.156 C 379.124,326.84 376.46,327.668 374.767,327.956 C 372.967,328.172 371.744,327.885 370.412,327.488 C 369.008,326.948 366.956,326.624 366.74,325.112 C 366.488,323.564 367.172,321.368 368.935,318.38 L 368.935,318.38 C 367.568,319.317 366.559,320.397 366.055,321.62 C 365.408,322.736 365.083,324.177 365.659,325.4 C 366.27,326.588 367.459,327.488 369.511,328.496 L 369.511,328.496 C 368.503,329.647 367.495,330.8 366.487,331.951 L 366.487,331.951 z " style="fill-rule:evenodd;stroke:#000000;stroke-width:0.036;stroke-miterlimit:10" id="path41"/>
	<path d="M 375.451,340.735 C 373.795,341.275 373.003,342.211 372.642,343.543 C 372.319,344.875 372.571,346.604 373.542,348.728 L 373.542,348.728 C 371.958,346.748 371.166,345.164 371.563,343.832 C 371.851,342.499 373.147,341.419 375.451,340.735 L 375.451,340.735 z " style="fill-rule:evenodd;stroke:#000000;stroke-width:0.036;stroke-miterlimit:10" id="path43"/>
	<path d="M 278.143,350.384 C 279.08,350.203 280.448,350.276 281.851,350.6 C 283.291,350.816 285.055,350.707 286.856,352.076 C 288.62,353.444 290.96,355.712 292.219,358.88 C 293.407,361.941 293.587,366.332 293.875,370.256 C 294.127,374.036 294.055,377.132 293.515,381.345 C 292.831,385.449 291.86,390.632 289.915,394.809 C 287.755,398.84 285.739,401.685 281.239,405.825 C 276.594,409.857 269.394,414.718 262.951,419.433 C 256.507,424.113 249.955,428.973 243.007,434.013 L 243.007,434.013 C 244.627,431.313 245.743,428.145 246.499,424.653 C 247.147,421.017 247.399,417.597 247.255,412.881 C 247.003,408.022 245.779,402.442 245.095,396.43 C 244.267,390.417 243.079,383.11 242.648,377.133 C 242.108,371.157 242.036,365.722 242.576,360.537 C 243.008,355.138 243.836,349.306 246.032,345.561 C 248.192,341.889 252.98,339.801 255.824,338.325 C 258.559,336.669 260.324,336.237 262.628,336.057 C 264.896,335.733 266.948,335.661 269.216,336.956 C 271.376,338.324 273.464,340.593 275.624,344.048 L 275.624,344.048 C 275.12,342.069 274.796,340.088 274.796,337.677 C 274.76,335.301 274.904,332.637 275.372,329.828 L 275.372,329.828 L 276.416,330.116 L 276.416,330.116 C 276.02,332.96 275.912,335.408 275.948,337.604 C 275.948,339.656 276.092,340.952 276.524,343.04 C 276.883,345.127 277.423,347.575 278.143,350.384 L 278.143,350.384 z " style="fill:#42713a;fill-rule:evenodd;stroke:#000000;stroke-width:0.036;stroke-miterlimit:10" id="path45"/>
	<path d="M 275.299,352.22 C 274.507,353.156 273.247,354.127 271.375,355.136 C 269.431,356.035 266.407,356.18 263.959,357.944 C 261.331,359.6 258.739,361.94 256.327,365.252 C 253.806,368.565 251.719,372.524 249.523,377.565 L 249.523,377.565 C 251.178,372.165 252.979,367.701 255.319,364.317 C 257.587,360.861 260.287,358.629 262.987,357.045 C 265.47,355.39 268.386,355.354 270.474,354.598 C 272.563,353.768 274.039,352.976 275.299,352.22 L 275.299,352.22 z " style="fill-rule:evenodd;stroke:#000000;stroke-width:0.036;stroke-miterlimit:10" id="path47"/>
	<path d="M 274.831,349.447 C 271.735,348.331 268.855,347.827 265.903,347.791 C 262.987,347.684 260.142,348.187 257.371,349.159 L 257.371,349.159 C 255.499,350.959 254.383,352.579 253.627,354.307 C 252.871,355.998 252.727,357.546 253.051,359.095 L 253.051,359.095 C 251.971,357.691 251.719,356.143 252.295,354.45 C 252.799,352.722 254.131,350.85 256.291,348.834 L 256.291,348.834 C 255.175,347.538 254.527,346.351 254.347,344.874 C 254.167,343.362 254.24,341.958 254.959,340.267 L 254.959,340.267 C 254.635,341.706 254.599,342.967 254.995,344.334 C 255.355,345.666 256.003,346.855 257.083,348.042 L 257.083,348.042 C 259.567,346.782 262.231,346.351 265.219,346.603 C 268.243,346.819 271.267,347.72 274.831,349.447 L 274.831,349.447 z " style="fill-rule:evenodd;stroke:#000000;stroke-width:0.036;stroke-miterlimit:10" id="path49"/>
	<path d="M 275.623,358.159 L 273.067,364.963 L 273.067,364.963 C 268.531,366.728 264.751,368.959 261.583,371.659 C 258.343,374.395 255.967,377.347 254.059,381.055 L 254.059,381.055 C 255.679,378.283 258.163,375.834 261.223,373.315 C 264.391,370.759 267.992,368.527 272.599,366.223 L 272.599,366.223 C 270.944,372.091 268.387,379.435 264.931,388.399 C 261.368,397.399 257.156,407.695 251.864,419.863 L 251.864,419.863 C 254.42,416.155 257.48,410.179 261.044,401.539 C 264.572,392.755 270.584,375.547 273.104,368.239 C 275.551,360.968 276.343,357.655 275.623,358.159 L 275.623,358.159 z " style="fill-rule:evenodd;stroke:#000000;stroke-width:0.036;stroke-miterlimit:10" id="path51"/>
	<path d="M 278.611,365.575 C 280.663,365.107 282.607,365.683 284.047,367.304 C 285.451,368.923 286.747,371.444 287.539,375.152 L 287.539,375.152 C 289.123,374.288 290.491,374.252 291.247,375.188 C 291.967,376.087 292.471,377.816 292.363,380.516 L 292.363,380.516 C 291.93,378.176 291.463,376.627 290.815,375.871 C 290.167,375.079 289.338,375.151 288.474,375.691 C 287.466,376.123 285.918,376.231 285.342,378.787 C 284.658,381.344 284.443,385.339 284.695,390.919 L 284.695,390.919 C 283.795,386.455 283.47,383.035 283.867,380.516 C 284.191,377.923 285.091,376.375 286.711,375.728 L 286.711,375.728 C 286.783,373.568 286.315,371.66 284.911,370.003 C 283.507,368.275 281.455,366.8 278.611,365.575 L 278.611,365.575 z " style="fill-rule:evenodd;stroke:#000000;stroke-width:0.036;stroke-miterlimit:10" id="path53"/>
	<path d="M 276.307,374.251 C 276.776,377.384 277.064,380.983 277.171,385.447 C 277.243,389.911 277.027,394.843 276.667,400.639 L 276.667,400.639 C 274.579,400.531 273.139,401.071 272.203,402.115 C 271.231,403.231 271.015,404.671 271.266,406.975 L 271.266,406.975 C 271.05,405.246 271.483,403.878 272.418,403.015 C 273.355,402.042 274.902,401.538 277.063,401.502 L 277.063,401.502 C 277.855,397.183 278.142,392.826 278.071,388.29 C 277.891,383.647 277.351,379.111 276.307,374.251 L 276.307,374.251 z " style="fill-rule:evenodd;stroke:#000000;stroke-width:0.036;stroke-miterlimit:10" id="path55"/>
	<path d="M 254.527,397.039 C 251.142,397.111 249.27,396.176 248.623,394.231 C 247.939,392.179 248.767,389.263 250.819,385.195 L 250.819,385.195 C 248.623,387.751 247.327,389.947 247.075,391.927 C 246.787,393.906 247.722,395.815 249.054,396.823 C 250.315,397.615 252.043,397.688 254.527,397.039 L 254.527,397.039 z " style="fill-rule:evenodd;stroke:#000000;stroke-width:0.036;stroke-miterlimit:10" id="path57"/>
	<path d="M 263.203,401.647 L 263.671,410.611 L 263.671,410.611 C 264.679,409.135 265.687,408.271 266.551,408.163 C 267.415,408.019 268.135,408.487 268.856,409.711 L 268.856,409.711 C 267.992,408.812 267.236,408.631 266.192,409.027 C 265.148,409.387 264.032,410.323 262.843,411.979 L 262.843,411.979 C 262.951,408.56 263.059,405.104 263.203,401.647 L 263.203,401.647 z " style="fill-rule:evenodd;stroke:#000000;stroke-width:0.036;stroke-miterlimit:10" id="path59"/>
	<path d="M 290.671,279.104 C 290.491,274.892 290.599,270.751 290.995,266.684 C 291.319,262.58 291.967,258.547 292.795,254.587 L 292.795,254.587 C 292.579,259.844 292.183,264.344 291.896,268.52 C 291.571,272.659 291.067,276.043 290.671,279.104 L 290.671,279.104 z " style="fill-rule:evenodd;stroke:#000000;stroke-width:0.036;stroke-miterlimit:10" id="path61"/>
	<path d="M 205.171,135.5 C 210.643,139.1 215.827,142.376 221.119,146.012 C 226.339,149.612 231.27,152.888 236.31,156.524 L 236.31,156.524 C 240.666,149.036 244.411,142.628 247.542,137.012 C 250.602,131.432 252.726,127.436 254.886,122.936 C 256.974,118.292 258.666,113.792 260.107,109.436 L 260.107,109.436 L 262.951,110.948 L 262.951,110.948 C 261.799,114.332 259.963,118.688 257.299,124.448 C 254.599,130.064 250.099,139.424 247.003,144.896 C 243.835,150.296 241.064,154.4 238.543,157.064 L 238.543,157.064 L 251.287,157.46 L 249.235,160.844 L 249.235,160.844 C 245.598,159.728 243.043,159.404 241.171,160.268 C 239.299,161.024 239.335,160.556 238.363,165.524 C 237.319,170.492 236.85,178.556 235.159,189.716 C 233.287,200.804 230.479,218.012 227.85,231.476 C 225.151,244.831 221.298,259.772 219.21,269.348 C 216.942,278.707 215.538,283.028 214.71,287.564 C 213.81,291.956 214.098,293.648 214.17,295.988 C 214.17,298.328 214.422,299.948 214.926,301.244 L 214.926,301.244 C 213.162,300.74 211.939,300.056 210.966,299.192 C 209.994,298.22 209.563,297.248 209.275,295.988 C 208.842,294.692 208.663,293.36 208.735,291.848 L 208.735,291.848 C 210.067,287.78 211.651,281.768 213.775,273.667 C 215.827,265.459 218.743,253.111 221.119,243.283 C 223.387,233.419 225.511,224.419 227.491,214.772 C 229.434,204.944 231.163,194.756 232.531,185.18 C 233.827,175.532 234.655,166.568 235.159,157.604 L 235.159,157.604 C 230.551,154.544 225.726,151.484 220.543,148.028 C 215.287,144.536 210.031,141.044 204.235,137.156 L 204.235,137.156 C 204.523,136.616 204.847,136.076 205.171,135.5 L 205.171,135.5 z " style="fill-rule:evenodd;stroke:#000000;stroke-width:0.036;stroke-miterlimit:10" id="path63"/>
	<path d="M 248.695,159.476 C 247.327,159.08 245.779,158.936 244.195,159.188 C 242.575,159.332 239.983,159.368 238.939,160.7 C 237.714,161.924 237.859,164.12 237.426,166.892 C 236.958,169.52 236.742,171.68 236.094,177.116 C 235.338,182.66 234.474,190.472 233.107,199.436 C 231.667,208.364 229.399,220.711 227.67,229.819 C 225.834,238.783 223.89,246.09 222.414,252.715 C 220.866,259.158 219.75,263.874 218.67,268.662 C 217.482,273.486 216.474,277.734 215.647,281.406 C 214.674,284.898 213.991,286.554 213.594,289.83 C 213.235,292.998 213.126,296.454 213.414,300.343 L 213.414,300.343 C 212.406,299.551 211.65,298.975 211.146,298.471 C 210.606,297.967 210.282,298.147 210.03,297.355 C 209.706,296.418 209.202,294.979 208.914,293.035 L 208.914,293.035 C 210.246,289.435 211.758,284.287 213.594,277.447 C 215.43,270.499 217.447,261.679 219.786,251.959 C 222.054,242.06 224.97,230.323 227.274,219.127 C 229.505,207.752 231.341,195.476 232.925,185.072 C 234.329,174.668 235.265,165.704 235.734,157.496 L 235.734,157.496 C 233.25,155.84 229.542,153.392 224.465,150.008 C 219.318,146.588 212.982,142.268 205.169,137.048 L 205.169,137.048 L 205.349,136.112 L 205.349,136.112 C 209.057,138.596 213.449,141.548 218.669,145.112 C 223.817,148.604 229.757,152.564 236.489,157.136 L 236.489,157.136 C 238.937,153.176 241.385,148.928 244.373,143.816 C 247.217,138.668 251.033,132.44 253.733,126.932 C 256.432,121.388 258.485,116.168 260.321,110.984 L 260.321,110.984 L 261.797,111.74 L 261.797,111.74 C 260.465,115.376 259.097,118.76 257.693,122.036 C 256.18,125.312 255.1,127.364 253.193,131.252 C 251.213,135.14 248.512,140.396 246.065,144.932 C 243.472,149.324 240.88,153.32 238.001,157.316 L 238.001,157.316 C 238.829,157.46 239.837,157.532 241.169,157.676 C 242.537,157.712 243.941,157.784 245.669,157.892 C 247.217,158 248.801,158.072 250.565,158.252 L 250.565,158.252 C 249.955,158.648 249.343,159.044 248.695,159.476 L 248.695,159.476 z " style="fill:#42713a;fill-rule:evenodd;stroke:#000000;stroke-width:0.036;stroke-miterlimit:10" id="path65"/>
	<path d="M 259.099,113.432 C 260.072,111.524 259.82,109.832 258.488,108.212 C 257.048,106.52 253.015,106.052 250.82,103.892 C 248.515,101.623 245.095,101.12 245.276,95 C 245.42,88.772 247.112,77.18 251.719,67.316 C 256.364,57.38 264.032,43.052 272.635,36.284 C 281.095,29.516 289.771,28.94 302.119,27.068 C 314.395,25.124 328.723,24.404 345.787,24.908 L 345.787,24.908 C 339.558,29.084 334.843,34.88 331.35,42.728 C 327.75,50.504 328.686,61.052 324.871,71.312 C 320.947,81.392 314.395,95.468 308.275,103.28 C 302.046,110.984 293.947,115.052 288.006,117.716 C 281.886,120.272 276.666,119.768 272.634,118.976 C 268.602,118.148 266.191,113.648 264.03,112.82 C 261.763,111.92 260.071,112.028 259.099,113.432 L 259.099,113.432 z " style="fill-rule:evenodd;stroke:#000000;stroke-width:0.036;stroke-miterlimit:10" id="path67"/>
	<path d="M 260.935,110.984 C 260.719,109.868 260.215,108.968 259.423,107.888 C 258.487,106.916 257.587,105.764 256.039,104.828 C 254.383,103.784 251.827,103.352 250.171,101.444 C 248.48,99.356 245.707,98.24 246.175,92.84 C 246.571,87.26 249.883,76.028 252.655,68.864 C 255.319,61.736 258.27,55.76 262.483,50.108 C 266.659,44.312 271.59,38.264 277.855,34.736 C 284.083,31.1 292.47,30.272 299.67,28.904 C 306.691,27.464 313.098,26.924 320.262,26.456 C 327.462,25.952 334.662,25.7 342.403,25.844 L 342.403,25.844 C 339.235,28.148 336.715,30.956 334.411,34.124 C 332.071,37.22 330.595,39.056 328.867,44.888 C 327.138,50.684 326.203,61.772 324.259,68.864 C 322.064,75.812 319.831,80.888 316.591,87.008 C 313.316,93.092 309.427,100.724 305.215,105.44 C 300.86,110.048 295.747,112.424 291.391,114.656 C 286.999,116.744 282.679,118.076 279.404,118.364 C 276.019,118.58 274.148,117.536 271.7,116.492 C 269.216,115.484 266.732,113.036 264.931,112.208 C 263.023,111.236 261.871,110.876 260.935,110.984 L 260.935,110.984 z " style="fill:#42713a;fill-rule:evenodd;stroke:#000000;stroke-width:0.036;stroke-miterlimit:10" id="path69"/>
	<path d="M 264.031,106.376 C 273.102,91.544 280.591,79.736 286.783,70.412 C 292.867,61.016 296.647,55.976 300.895,50.72 C 305.142,45.464 308.886,41.576 312.27,39.056 L 312.27,39.056 C 313.098,36.176 312.63,34.484 310.434,33.836 C 308.239,33.188 304.602,33.692 299.382,35.348 L 299.382,35.348 C 301.29,33.656 303.342,32.684 305.826,32.288 C 308.238,31.82 312.198,32.072 313.818,32.9 C 315.221,33.656 315.654,35.132 314.717,37.184 L 314.717,37.184 C 317.022,34.736 320.045,32.936 323.646,31.352 C 327.282,29.768 331.385,28.688 336.246,27.968 L 336.246,27.968 C 330.522,29.984 325.446,32.396 320.874,35.348 C 316.194,38.336 312.378,41.54 308.886,45.5 L 308.886,45.5 C 311.586,46.184 314.323,46.544 317.49,46.436 C 320.586,46.292 323.826,45.824 327.354,44.888 L 327.354,44.888 C 324.833,46.184 322.206,47.048 319.038,47.336 C 315.906,47.66 312.378,47.408 308.598,46.724 L 308.598,46.724 C 304.279,50.252 301.038,53.384 298.735,56.264 C 296.359,59.036 295.027,62.24 294.739,63.644 C 294.306,64.976 293.875,65.048 296.899,64.256 C 299.995,63.32 309.031,59.9 312.882,58.424 C 316.518,56.948 318.57,55.868 319.038,55.328 L 319.038,55.328 C 315.69,57.56 312.414,59.504 309.21,61.16 C 305.97,62.852 302.334,64.328 299.67,65.156 C 296.97,65.768 294.666,65.768 292.902,65.156 L 292.902,65.156 C 289.049,69.656 285.954,73.976 283.074,78.404 C 280.23,82.796 277.926,87.044 276.017,91.292 L 276.017,91.292 C 275.406,94.064 276.269,95.252 278.753,95 C 281.201,94.532 286.169,92.408 290.741,89.456 C 295.205,86.468 302.117,80.204 305.501,77.468 C 308.705,74.624 310.289,73.184 310.109,72.86 L 310.109,72.86 C 308.741,72.068 307.877,70.988 307.661,69.764 C 307.373,68.468 307.733,66.884 308.597,65.156 L 308.597,65.156 C 308.562,67.1 308.957,68.396 309.497,69.476 C 310.037,70.448 310.865,70.916 311.981,71.024 L 311.981,71.024 L 323.033,61.484 L 323.033,61.484 C 320.801,63.644 319.361,65.336 318.713,66.704 C 318.029,67.928 318.317,68.9 319.037,69.476 C 319.684,69.98 320.909,70.232 322.709,70.088 L 322.709,70.088 C 320.765,70.592 319.289,70.844 318.425,70.7 C 317.453,70.484 317.093,70.016 317.201,69.152 L 317.201,69.152 C 316.481,70.232 315.149,71.528 313.205,73.472 C 311.153,75.272 308.489,77.576 305.213,80.24 L 305.213,80.24 C 305.141,82.58 305.861,83.876 307.373,84.524 C 308.849,85.136 311.045,84.704 314.105,83.624 L 314.105,83.624 C 312.808,85.136 311.477,86.108 310.109,86.396 C 308.669,86.612 306.869,86.252 305.825,85.46 C 304.745,84.632 304.133,83.444 303.989,81.752 L 303.989,81.752 C 300.857,83.696 298.373,85.496 295.997,87.296 C 293.657,89.096 291.749,90.608 290.129,92.228 L 290.129,92.228 C 292.001,94.46 294.161,95.792 296.609,96.224 C 298.913,96.548 302.224,95.108 304.6,94.676 C 307.012,94.244 308.92,93.74 310.72,93.452 L 310.72,93.452 C 309.208,95 307.012,96.08 304.277,96.836 C 301.361,97.52 296.501,98.348 294.125,97.772 C 291.749,97.016 290.417,95.504 290.129,92.84 L 290.129,92.84 C 287.429,94.1 285.017,95.072 282.749,95.9 C 280.409,96.62 278.321,97.556 276.629,97.448 C 274.829,97.304 273.677,96.44 272.633,95 L 272.633,95 C 272.849,95.936 272.129,97.412 270.761,99.284 C 269.359,101.156 267.019,103.568 264.031,106.376 L 264.031,106.376 z " style="fill-rule:evenodd;stroke:#000000;stroke-width:0.036;stroke-miterlimit:10" id="path71"/>
	<path d="M 274.147,105.728 C 276.991,109.364 280.123,111.272 283.686,111.884 C 287.25,112.352 291.102,111.38 295.386,108.824 L 295.386,108.824 C 291.93,110.552 288.439,111.164 284.91,110.66 C 281.311,110.084 277.819,108.536 274.147,105.728 L 274.147,105.728 z " style="fill-rule:evenodd;stroke:#000000;stroke-width:0.036;stroke-miterlimit:10" id="path73"/>
	<path d="M 284.623,66.704 C 285.811,61.808 286.315,57.92 286.135,55.04 C 285.955,52.088 285.739,50.036 283.4,49.172 C 280.843,48.236 276.992,48.344 271.412,49.496 L 271.412,49.496 C 273.464,48.416 275.84,47.804 278.143,47.66 C 280.412,47.516 283.003,47.768 285.524,48.56 L 285.524,48.56 C 286.603,49.136 287.503,48.272 288.62,45.824 C 289.556,43.268 290.708,39.416 291.68,33.836 L 291.68,33.836 C 292.365,37.508 292.365,40.532 291.68,43.34 C 290.888,46.004 289.556,48.308 287.397,50.108 L 287.397,50.108 C 287.865,53.96 287.865,57.056 287.397,59.936 C 286.927,62.672 285.955,64.976 284.623,66.704 L 284.623,66.704 z " style="fill-rule:evenodd;stroke:#000000;stroke-width:0.036;stroke-miterlimit:10" id="path75"/>
	<path d="M 275.407,83.624 C 276.379,79.232 275.911,75.164 274.147,71.024 C 272.239,66.884 269.251,62.888 264.642,59.036 L 264.642,59.036 C 268.783,61.448 271.806,64.004 273.859,66.704 C 275.838,69.332 276.63,72.104 276.919,75.02 C 277.135,77.864 276.631,80.636 275.407,83.624 L 275.407,83.624 z " style="fill-rule:evenodd;stroke:#000000;stroke-width:0.036;stroke-miterlimit:10" id="path77"/>
	<path d="M 267.703,94.064 C 268.171,91.328 267.919,88.592 267.091,85.46 C 266.227,82.364 264.643,79.088 262.484,75.632 L 262.484,75.632 C 264.32,80.168 265.507,83.912 266.48,87.008 C 267.343,90.104 267.703,92.408 267.703,94.064 L 267.703,94.064 z " style="fill-rule:evenodd;stroke:#000000;stroke-width:0.036;stroke-miterlimit:10" id="path79"/>
	<path d="M 205.315,137.084 C 206.755,139.424 206.503,141.692 204.703,144.176 C 202.831,146.66 202.543,150.692 194.263,151.556 C 185.767,152.276 165.643,153.464 154.591,148.46 C 143.503,143.168 135.439,130.208 128.167,121.1 C 120.859,111.992 116.611,101.048 110.959,94.676 C 105.199,88.34 99.655,84.596 94.039,83.3 L 94.039,83.3 C 102.139,84.416 111.211,85.244 121.687,86.072 C 132.127,86.828 145.699,86.288 156.139,87.908 C 166.363,89.42 174.535,91.508 183.175,95.288 C 191.887,99.068 203.227,104.684 207.763,110.048 C 212.047,115.304 209.743,121.712 209.31,126.356 C 208.879,130.892 207.547,134.42 205.315,137.084 L 205.315,137.084 z " style="fill-rule:evenodd;stroke:#000000;stroke-width:0.036;stroke-miterlimit:10" id="path81"/>
	<path d="M 204.703,135.248 C 206.611,132.116 207.835,128.876 208.375,125.096 C 208.843,121.244 209.563,116.312 207.763,112.82 C 205.891,109.328 202.687,107.672 197.323,104.504 C 191.815,101.228 182.275,96.296 175.507,93.74 C 168.631,91.22 163.771,90.392 157.039,89.456 C 150.235,88.376 142.099,87.944 135.547,87.62 C 128.995,87.188 123.847,87.404 118.015,87.008 C 112.039,86.648 106.423,85.892 100.483,85.136 L 100.483,85.136 C 104.155,86.756 107.647,89.456 110.959,92.84 C 114.235,96.368 117.079,100.94 120.175,105.728 C 123.127,110.372 125.539,115.592 129.067,120.812 C 132.595,125.96 137.203,132.152 141.379,136.472 C 145.339,140.576 147.571,143.852 153.367,146.3 C 159.199,148.784 169.099,150.476 176.119,151.232 C 182.995,151.88 190.483,150.404 194.551,150.008 C 198.475,149.432 198.079,149.468 199.771,148.172 C 201.391,146.804 203.155,144.104 204.091,142.016 C 204.883,139.784 205.135,137.66 204.703,135.248 L 204.703,135.248 z " style="fill:#42713a;fill-rule:evenodd;stroke:#000000;stroke-width:0.036;stroke-miterlimit:10" id="path83"/>
	<path d="M 200.383,132.476 C 194.155,129.236 187.387,125.888 179.791,122.036 C 172.087,118.22 163.987,114.116 154.915,109.724 L 154.915,109.724 C 150.307,110.804 146.059,111.272 142.315,111.272 C 138.355,111.164 134.647,110.732 132.163,109.436 C 129.643,107.96 128.203,105.944 127.555,102.992 L 127.555,102.992 C 127.231,105.44 127.843,107.528 129.391,109.112 C 130.795,110.696 132.559,112.1 136.771,112.496 C 141.019,112.784 151.495,111.128 154.591,110.984 C 157.543,110.696 157.543,110.696 154.591,110.984 L 154.591,110.984 C 168.415,117.896 178.747,122.972 186.559,126.644 C 194.155,130.172 198.763,132.116 200.383,132.476 L 200.383,132.476 z " style="fill-rule:evenodd;stroke:#000000;stroke-width:0.036;stroke-miterlimit:10" id="path85"/>
	<path d="M 191.491,130.64 C 187.099,129.92 182.995,129.56 179.179,129.704 C 175.255,129.812 171.763,130.28 168.415,131.252 L 168.415,131.252 C 164.779,131.18 161.791,129.956 158.911,127.868 C 156.067,125.708 153.655,122.54 151.531,118.364 L 151.531,118.364 C 151.135,119.408 151.387,120.632 152.143,122.036 C 152.971,123.44 154.123,124.88 156.139,126.644 L 156.139,126.644 C 153.079,126.608 150.343,126.248 147.535,125.42 C 144.727,124.556 142.063,123.368 139.543,121.712 L 139.543,121.712 C 140.335,123.656 142.171,124.952 145.051,126.032 C 147.895,127.004 151.747,127.472 156.751,127.58 L 156.751,127.58 L 164.743,132.8 L 164.743,132.8 C 159.163,134.348 155.887,136.04 154.915,138.02 C 153.799,140.036 155.671,143.06 158.587,144.464 C 161.539,145.724 166.003,145.94 172.411,145.4 L 172.411,145.4 C 167.623,145.4 163.987,145.04 161.359,144.176 C 158.659,143.204 156.427,141.692 156.751,140.18 C 157.039,138.596 159.919,136.4 162.907,134.96 C 165.751,133.448 169.063,131.936 173.959,131.252 C 178.819,130.532 184.435,130.28 191.491,130.64 L 191.491,130.64 z " style="fill-rule:evenodd;stroke:#000000;stroke-width:0.036;stroke-miterlimit:10" id="path87"/>
	<path d="M 200.995,126.032 C 200.887,122.468 200.383,119.336 199.483,116.492 C 198.547,113.648 197.215,111.236 195.487,109.112 L 195.487,109.112 C 196.999,111.812 198.223,114.584 199.159,117.428 C 200.059,120.272 200.671,123.044 200.995,126.032 L 200.995,126.032 z " style="fill-rule:evenodd;stroke:#000000;stroke-width:0.036;stroke-miterlimit:10" id="path89"/>
	<path d="M 196.387,124.808 C 192.787,122.324 189.871,119.048 187.783,114.98 C 185.623,110.804 184.147,105.98 183.499,100.22 L 183.499,100.22 C 183.787,103.712 185.011,107.456 187.171,111.596 C 189.295,115.7 192.319,120.056 196.387,124.808 L 196.387,124.808 z " style="fill-rule:evenodd;stroke:#000000;stroke-width:0.036;stroke-miterlimit:10" id="path91"/>
	<path d="M 179.791,116.492 C 175.399,113.864 172.015,111.236 169.639,108.212 C 167.227,105.08 167.191,101.444 165.355,98.672 C 163.411,95.972 161.107,93.668 158.299,91.904 L 158.299,91.904 C 161.323,94.244 163.627,96.764 165.355,99.608 C 167.047,102.488 165.931,105.836 168.415,108.824 C 170.827,111.632 174.571,114.188 179.791,116.492 L 179.791,116.492 z " style="fill-rule:evenodd;stroke:#000000;stroke-width:0.036;stroke-miterlimit:10" id="path93"/>
	<path d="M 153.043,107.276 C 147.211,104.036 140.983,100.868 133.675,97.772 C 126.367,94.568 118.519,91.58 109.735,88.52 L 109.735,88.52 C 117.871,92.048 125.503,95.144 132.775,98.384 C 140.047,101.444 146.707,104.504 153.043,107.276 L 153.043,107.276 z " style="fill-rule:evenodd;stroke:#000000;stroke-width:0.036;stroke-miterlimit:10" id="path95"/>
	<path d="M 156.751,105.116 C 158.227,102.776 158.371,100.832 157.039,99.284 C 155.707,97.664 152.899,96.44 148.759,95.612 L 148.759,95.612 C 150.739,95.18 151.567,94.604 151.531,93.74 C 151.459,92.768 150.235,91.796 148.147,90.392 L 148.147,90.392 C 149.803,91.184 150.307,92.3 149.659,93.452 C 148.975,94.604 147.139,95.936 144.151,97.448 L 144.151,97.448 L 148.759,96.836 L 148.759,96.836 C 151.279,96.404 153.223,97.052 154.591,98.384 C 155.887,99.68 156.607,102.056 156.751,105.116 L 156.751,105.116 z " style="fill-rule:evenodd;stroke:#000000;stroke-width:0.036;stroke-miterlimit:10" id="path97"/>
	<path d="M 196.711,138.344 C 194.911,141.368 192.895,143.672 190.231,145.4 C 187.567,147.092 184.543,148.064 181.015,148.46 L 181.015,148.46 C 185.623,148.424 189.079,147.74 191.779,146.012 C 194.443,144.284 195.955,141.728 196.711,138.344 L 196.711,138.344 z " style="fill-rule:evenodd;stroke:#000000;stroke-width:0.036;stroke-miterlimit:10" id="path99"/>
	<path d="M 260.647,152.384 C 256.903,151.952 253.878,152.636 251.43,154.832 C 248.91,156.884 245.67,160.268 245.886,164.984 C 246.031,169.556 248.155,177.296 252.655,182.516 C 257.119,187.772 260.215,194.504 272.634,196.052 C 285.09,197.24 310.794,192.704 326.418,190.796 C 341.862,188.924 354.498,185.972 365.154,185.288 C 375.774,184.604 383.838,184.964 389.742,186.512 L 389.742,186.512 C 373.938,176.756 360.33,167.972 348.234,159.764 C 336.246,151.484 328.002,142.808 317.814,137.624 C 307.446,132.332 294.881,129.128 286.782,128.408 C 278.574,127.652 272.958,129.668 269.538,133.34 C 266.118,136.904 267.918,146.696 266.478,149.936 C 264.895,153.068 263.095,153.932 260.647,152.384 L 260.647,152.384 z " style="fill-rule:evenodd;stroke:#000000;stroke-width:0.036;stroke-miterlimit:10" id="path101"/>
	<path d="M 384.451,184.244 C 384.451,184.244 372.319,176.72 365.695,172.328 C 359.071,167.864 349.711,161.888 343.735,157.604 C 337.758,153.32 335.203,150.476 330.27,146.912 C 325.266,143.384 320.046,139.28 314.142,136.544 C 308.239,133.808 300.895,131.792 295.098,130.676 C 289.338,129.524 283.686,128.336 279.474,128.984 C 275.298,129.632 272.166,132.404 270.186,134.528 C 268.207,136.688 268.422,140.036 268.027,142.592 C 267.594,145.148 268.063,147.92 267.703,149.72 C 267.343,151.484 266.766,152.42 265.867,153.104 C 264.93,153.788 263.779,153.716 262.303,153.752 C 260.755,153.752 258.811,152.816 256.867,153.284 C 254.923,153.716 252.259,154.796 250.675,156.38 C 249.091,157.964 247.831,160.052 247.435,162.716 C 247.039,165.38 247.364,169.16 248.372,172.328 C 249.344,175.46 251,178.448 253.304,181.436 C 255.644,184.424 258.489,188.492 261.512,190.58 C 264.573,192.632 267.525,194.072 272.672,194.756 C 277.82,195.44 285.416,194.684 292.796,194.144 C 300.14,193.568 305.828,191.984 315.224,190.58 C 324.693,189.176 340.317,186.872 348.848,185.792 C 357.272,184.712 359.972,184.388 365.697,184.064 C 371.491,183.776 384.451,184.244 384.451,184.244 L 384.451,184.244 z " style="fill:#42713a;fill-rule:evenodd;stroke:#000000;stroke-width:0.036;stroke-miterlimit:10" id="path103"/>
	<path d="M 269.863,151.268 C 272.85,149.612 276.775,148.712 281.634,148.172 C 286.53,147.668 293.046,147.812 298.842,148.316 C 304.567,148.748 310.002,149.576 315.546,150.8 L 315.546,150.8 C 308.706,149.936 302.514,149.468 296.826,149.252 C 291.03,148.964 285.269,149.108 281.49,149.396 C 277.71,149.576 275.55,150.188 273.893,150.8 C 271.986,151.412 270.366,151.952 270.978,152.816 C 271.553,153.464 272.994,154.004 277.925,155.12 C 282.894,156.344 293.801,158.036 300.533,159.62 C 307.193,161.06 312.773,162.212 317.705,163.472 L 317.705,163.472 C 319.721,161.888 322.205,160.808 325.301,160.088 C 328.362,159.26 332.07,158.576 335.993,159.008 C 339.773,159.476 345.173,161.312 347.909,162.572 C 350.573,163.688 351.761,164.768 351.761,165.812 L 351.761,165.812 C 350.07,164.552 347.909,163.364 345.425,162.392 C 342.797,161.276 339.305,160.124 336.606,159.764 C 333.834,159.368 332.286,159.476 329.334,160.088 C 326.346,160.7 323.034,161.78 319.11,163.472 L 319.11,163.472 C 325.374,164.948 331.566,166.604 337.685,168.44 C 343.805,170.204 348.954,172.22 355.65,174.488 C 362.381,176.72 369.33,179.096 377.322,181.76 L 377.322,181.76 C 360.509,176.252 346.973,172.256 336.137,169.232 C 325.301,166.316 318.713,165.02 312.774,163.94 C 306.797,162.644 302.765,161.924 300.534,161.78 L 300.534,161.78 C 303.198,164.984 305.574,167.576 307.95,169.7 C 310.254,171.752 312.378,173.3 314.466,174.344 L 314.466,174.344 C 318.03,174.236 322.027,174.848 326.994,176.324 C 331.854,177.728 337.326,179.996 343.554,182.984 L 343.554,182.984 C 338.658,181.256 334.374,179.816 330.558,178.52 C 326.706,177.152 322.855,175.784 320.514,175.244 C 317.958,174.632 316.735,175.1 315.87,175.244 C 314.933,175.316 315.078,174.884 314.933,175.892 C 314.574,176.864 314.141,179.06 314.61,180.68 C 315.078,182.156 316.122,183.452 317.885,184.712 L 317.885,184.712 C 315.329,183.704 313.854,182.408 313.062,180.824 C 312.269,179.204 312.377,177.296 313.385,175.1 L 313.385,175.1 C 309.894,173.084 306.942,170.96 304.385,168.584 C 301.829,166.208 299.814,163.688 298.194,161.024 L 298.194,161.024 C 294.486,160.34 290.562,159.512 285.99,158.54 C 281.345,157.388 273.426,155.048 270.978,154.976 C 268.457,154.832 270.041,155.588 271.41,158.216 C 272.67,160.88 275.154,167 279.006,170.6 C 282.75,174.02 287.862,176.864 294.198,178.988 L 294.198,178.988 C 295.53,178.16 297.33,177.836 299.597,177.872 C 301.902,177.836 304.457,178.304 307.661,179.132 L 307.661,179.132 C 304.673,178.7 302.189,178.592 300.209,178.664 C 298.23,178.736 296.789,178.772 295.745,179.744 C 294.629,180.608 293.441,182.552 293.549,184.064 C 293.621,185.504 294.269,186.908 295.889,188.42 L 295.889,188.42 C 294.089,188.384 292.902,187.664 292.469,186.26 C 291.965,184.784 292.217,182.66 293.081,179.744 L 293.081,179.744 C 288.905,178.448 285.629,176.9 282.569,175.1 C 279.653,173.228 277.277,171.572 275.297,168.764 C 273.209,165.812 271.23,160.304 270.185,158.072 C 269.106,155.84 269.106,155.984 268.782,155.3 C 268.314,154.544 267.305,153.968 267.557,153.428 C 267.667,152.744 268.531,152.024 269.863,151.268 L 269.863,151.268 z " style="fill-rule:evenodd;stroke:#000000;stroke-width:0.036;stroke-miterlimit:10" id="path105"/>
	<path d="M 262.123,156.38 C 259.171,157.424 257.983,159.8 258.559,163.652 C 259.099,167.504 261.331,172.58 265.4,179.276 L 265.4,179.276 C 261.656,173.624 259.28,169.232 258.128,165.956 C 256.904,162.572 257.696,161.06 258.416,159.476 C 259.099,157.892 260.287,156.812 262.123,156.38 L 262.123,156.38 z " style="fill-rule:evenodd;stroke:#000000;stroke-width:0.036;stroke-miterlimit:10" id="path107"/>
	<path d="M 274.831,143.528 C 278.431,140.252 282.715,138.38 287.683,137.48 C 292.652,136.58 298.087,136.94 304.387,138.416 L 304.387,138.416 C 299.419,137.228 294.667,137.12 289.699,137.948 C 284.767,138.776 279.763,140.684 274.831,143.528 L 274.831,143.528 z " style="fill-rule:evenodd;stroke:#000000;stroke-width:0.036;stroke-miterlimit:10" id="path109"/>
	<path d="M 210.499,12.452 C 205.999,14.252 202.651,16.124 200.311,18.212 C 197.863,20.264 196.747,22.676 196.387,24.764 C 195.991,26.744 196.603,28.616 198.223,30.236 L 198.223,30.236 C 194.911,36.536 191.635,42.548 188.539,48.56 C 185.299,54.572 180.763,60.476 179.359,65.84 C 177.847,71.06 180.295,75.884 179.899,79.736 C 179.395,83.408 177.739,84.812 177.019,88.376 C 176.299,91.94 176.695,96.728 175.687,100.94 C 174.643,105.008 173.095,108.932 170.467,112.712 C 167.659,116.384 163.951,119.876 159.199,123.188 L 159.199,123.188 C 166.507,121.964 173.095,118.04 179.107,110.876 C 185.119,103.604 191.131,88.124 195.055,80.528 C 198.799,72.932 199.447,69.62 201.859,65.588 C 204.199,61.412 206.611,60.404 208.951,55.904 C 211.219,51.332 213.163,45.536 215.215,38.372 L 215.215,38.372 L 218.887,36.788 L 218.887,36.788 C 220.112,46.868 222.991,56.192 227.816,65.336 C 232.675,74.372 240.559,83.768 247.435,91.004 C 254.167,98.132 262.879,101.948 268.135,108.284 C 273.32,114.584 276.488,122.828 278.612,128.696 C 280.7,134.528 281.204,139.064 280.412,142.844 L 280.412,142.844 C 284.048,127.112 285.668,113.036 285.668,99.644 C 285.524,86.144 283.472,74.156 279.908,63.248 C 276.164,52.34 270.187,42.908 263.924,34.952 C 257.624,26.96 250.569,20.552 242.468,15.584 L 242.468,15.584 C 245.996,15.188 250.821,16.196 257.372,18.464 C 263.96,20.732 272.42,26.996 281.204,29.192 C 289.771,31.244 298.376,30.884 308.96,31.028 C 319.508,31.1 331.028,30.848 344.06,29.984 L 344.06,29.984 C 337.941,26.816 329.048,23.108 316.808,18.464 C 304.424,13.856 283.329,5.468 271.016,2.48 C 258.704,-0.58 249.956,0.032 243.26,0.14 C 236.529,0.104 232.388,0.932 230.697,2.48 L 230.697,2.48 C 226.268,1.328 222.633,0.968 219.932,1.688 C 217.197,2.372 215.649,4.496 214.172,6.404 C 212.479,8.168 211.435,10.184 210.499,12.452 L 210.499,12.452 z " style="fill-rule:evenodd;stroke:#000000;stroke-width:0.036;stroke-miterlimit:10" id="path111"/>
	<path d="M 198.727,30.776 C 200.383,33.332 202.219,35.168 204.235,36.284 C 206.287,37.256 209.024,37.004 210.787,37.328 C 212.443,37.616 213.523,37.868 214.171,38.084 L 214.171,38.084 C 212.983,43.376 211.507,47.876 209.743,51.728 C 207.907,55.58 204.883,58.496 203.443,60.872 C 201.859,63.068 202.651,61.232 200.815,65.084 C 198.835,68.864 195.775,76.46 192.463,83.408 C 189.151,90.248 184.327,100.616 181.447,105.908 C 178.495,110.948 177.703,111.704 174.895,114.296 C 171.907,116.888 168.379,119.192 163.915,121.352 L 163.915,121.352 C 167.191,119.048 169.711,116.168 172.015,112.712 C 174.211,109.148 175.975,104.36 177.019,100.436 C 177.883,96.332 176.803,92.623 177.523,89.168 C 178.171,85.712 180.691,82.976 181.195,79.988 C 181.447,76.964 179.863,73.724 179.899,71.096 C 179.863,68.432 180.475,66.668 181.447,64.004 C 182.383,61.124 183.967,58.136 185.911,54.608 C 187.819,51.008 191.095,46.148 192.967,43.088 C 194.695,39.92 195.595,38.3 196.639,36.284 C 197.539,34.196 198.331,32.36 198.727,30.776 L 198.727,30.776 z " style="fill:#8f87c1;fill-rule:evenodd;stroke:#000000;stroke-width:0.036;stroke-miterlimit:10" id="path113"/>
	<path d="M 210.247,14 C 207.007,15.476 204.343,16.916 202.399,18.464 C 200.347,19.904 198.727,21.38 198.223,23.18 C 197.683,25.016 198.259,27.068 199.267,29.192 C 200.239,31.244 202.363,34.412 203.695,35.204 C 204.775,35.852 205.099,33.728 206.323,33.116 C 207.511,32.468 210.247,32.468 211.039,31.028 C 211.579,29.48 210.607,26.024 210.499,23.972 C 210.355,21.884 210.355,19.832 210.499,18.212 L 210.499,18.212 C 211.651,20.768 212.695,22.784 214.171,23.972 C 215.539,25.016 216.475,24.836 218.635,25.52 C 220.652,26.24 223.783,28.04 226.484,28.688 C 229.148,29.336 232.135,29.876 234.332,29.192 C 236.384,28.292 237.824,26.276 239.048,23.972 C 240.2,21.488 240.992,17.816 241.424,15.332 C 241.82,12.848 242.649,11.012 241.424,9.284 C 239.948,7.376 235.988,5.756 233.288,4.568 C 230.588,3.38 228.103,2.552 225.692,2.48 C 223.171,2.264 220.904,2.66 218.887,3.812 C 216.692,5.072 214.856,7.736 213.379,9.572 C 211.939,11.228 210.895,12.704 210.247,14 L 210.247,14 z " style="fill:#8f87c1;fill-rule:evenodd;stroke:#000000;stroke-width:0.036;stroke-miterlimit:10" id="path115"/>
	<path d="M 233.035,2.768 C 235.159,1.4 239.083,0.644 244.806,0.644 C 250.567,0.536 259.098,0.824 267.342,2.48 C 275.622,4.1 284.766,7.412 293.514,10.328 C 302.118,13.208 310.182,16.268 318.39,19.508 C 326.454,22.604 334.122,25.88 341.682,29.192 L 341.682,29.192 C 335.527,29.66 328.686,29.876 321.018,29.984 C 313.17,30.056 302.802,30.164 295.602,29.732 C 288.403,29.192 283.47,28.328 278.323,26.852 C 273.067,25.268 268.855,22.424 264.715,20.552 C 260.467,18.536 257.083,16.628 253.447,15.512 C 249.81,14.396 246.39,13.784 243.043,13.82 L 243.043,13.82 C 243.331,11.552 243.187,9.932 242.467,8.528 C 241.531,7.124 240.488,6.584 238.795,5.648 C 237.175,4.604 235.303,3.776 233.035,2.768 L 233.035,2.768 z " style="fill:#8f87c1;fill-rule:evenodd;stroke:#000000;stroke-width:0.036;stroke-miterlimit:10" id="path117"/>
	<path d="M 219.175,7.736 C 218.923,9.428 218.959,11.516 219.427,14 C 219.823,16.484 220.652,19.364 221.767,22.64 L 221.767,22.64 C 220.831,18.788 220.039,15.692 219.679,13.208 C 219.175,10.652 219.103,8.96 219.175,7.736 L 219.175,7.736 z " style="fill-rule:evenodd;stroke:#000000;stroke-width:0.036;stroke-miterlimit:10" id="path119"/>
	<path d="M 226.735,5.9 C 227.85,9.032 228.859,12.128 229.615,15.044 C 230.371,17.924 230.983,20.768 231.451,23.432 L 231.451,23.432 C 231.235,18.392 230.623,14.648 229.903,11.66 C 229.147,8.708 227.995,6.836 226.735,5.9 L 226.735,5.9 z " style="fill-rule:evenodd;stroke:#000000;stroke-width:0.036;stroke-miterlimit:10" id="path121"/>
	<path d="M 233.827,8.528 C 234.511,9.428 235.123,10.76 235.663,12.956 C 236.167,15.044 236.599,17.708 236.959,21.092 L 236.959,21.092 C 237.355,18.392 237.139,16.124 236.707,14 C 236.095,11.84 235.267,10.112 233.827,8.528 L 233.827,8.528 z " style="fill-rule:evenodd;stroke:#000000;stroke-width:0.036;stroke-miterlimit:10" id="path123"/>
	<path d="M 205.279,20.3 L 203.695,30.524 L 203.695,30.524 C 204.343,28.436 204.739,26.384 205.027,24.764 C 205.315,23.108 205.351,21.488 205.279,20.3 L 205.279,20.3 z " style="fill-rule:evenodd;stroke:#000000;stroke-width:0.036;stroke-miterlimit:10" id="path125"/>
	<path d="M 203.443,41.756 C 202.219,44.96 200.599,48.488 198.727,52.772 C 196.711,56.984 193.291,62.528 191.923,66.884 C 190.555,71.132 190.123,74.984 190.627,78.44 L 190.627,78.44 C 190.843,74.336 191.671,70.448 192.967,66.632 C 194.299,62.78 196.603,59.72 198.475,55.652 C 200.203,51.44 201.859,46.904 203.443,41.756 L 203.443,41.756 z " style="fill-rule:evenodd;stroke:#000000;stroke-width:0.036;stroke-miterlimit:10" id="path127"/>
	<path d="M 198.475,42.548 C 197.251,45.5 195.811,48.668 193.759,52.484 C 191.707,56.228 189.259,60.188 186.415,64.796 L 186.415,64.796 C 188.071,62.924 189.907,60.188 191.923,56.444 C 193.975,52.664 196.063,48.128 198.475,42.548 L 198.475,42.548 z " style="fill-rule:evenodd;stroke:#000000;stroke-width:0.036;stroke-miterlimit:10" id="path129"/>
	<path d="M 266.551,14.792 C 271.951,15.872 277.495,17.528 283.579,19.76 C 289.663,21.956 295.855,24.62 302.695,27.896 L 302.695,27.896 C 296.071,25.16 289.879,22.712 283.831,20.552 C 277.783,18.356 272.023,16.484 266.551,14.792 L 266.551,14.792 z " style="fill-rule:evenodd;stroke:#000000;stroke-width:0.036;stroke-miterlimit:10" id="path131"/>
	<path d="M 244.303,5.36 C 253.303,5.648 260.755,6.44 266.803,7.736 C 272.816,8.96 275.732,11.156 280.411,12.956 C 285.018,14.756 289.555,16.376 294.307,18.212 L 294.307,18.212 C 286.927,15.728 281.167,13.892 276.488,12.164 C 271.807,10.508 271.88,9.248 266.551,8.24 C 261.151,7.088 253.735,6.08 244.303,5.36 L 244.303,5.36 z " style="fill-rule:evenodd;stroke:#000000;stroke-width:0.036;stroke-miterlimit:10" id="path133"/>
	<path d="M 296.396,14 C 301.723,16.448 306.656,18.5 311.335,20.3 C 315.907,21.992 320.227,23.432 324.151,24.476 L 324.151,24.476 C 317.922,23 312.558,21.524 307.915,19.76 C 303.307,17.996 299.419,16.124 296.396,14 L 296.396,14 z " style="fill-rule:evenodd;stroke:#000000;stroke-width:0.036;stroke-miterlimit:10" id="path135"/>
	<path d="M 205.279,35.744 C 205.099,35.096 205.531,34.664 206.575,34.16 C 207.583,33.656 210.355,33.872 211.291,32.864 C 212.155,31.64 211.831,29.804 211.831,27.644 C 211.686,25.448 211.435,23.144 210.787,20.3 L 210.787,20.3 C 211.363,22.46 212.226,24.08 213.379,25.016 C 214.531,25.844 216.115,25.736 217.591,26.06 C 218.923,26.312 219.535,26.744 221.515,27.356 C 223.459,27.932 225.727,28.94 228.86,29.984 L 228.86,29.984 C 226.988,31.172 225.368,32.216 224.143,33.116 C 222.847,33.908 222.488,34.7 221.263,35.204 C 219.895,35.708 217.627,35.888 216.547,36.284 C 215.503,36.572 214.927,36.824 214.963,37.04 L 214.963,37.04 C 213.379,36.716 211.903,36.464 210.247,36.284 C 208.627,36.032 206.971,35.852 205.279,35.744 L 205.279,35.744 z " style="fill:#7f7396;fill-rule:evenodd;stroke:#000000;stroke-width:0.036;stroke-miterlimit:10" id="path137"/>
	<path d="M 242.827,22.064 C 243.403,22.424 247.363,27.86 248.875,31.028 C 250.243,34.232 251.215,37.976 251.215,40.748 C 251.071,43.34 249.163,46.724 248.551,46.436 C 247.975,45.932 248.047,41.144 247.652,38.192 C 246.931,35.132 246.32,31.532 245.42,28.796 C 244.519,25.988 242.215,21.704 242.827,22.064 L 242.827,22.064 z " style="fill:#ffffff;fill-rule:evenodd;stroke:#000000;stroke-width:0.036;stroke-miterlimit:10" id="path139"/>
	<path d="M 241.711,23.756 C 243.187,29.084 244.087,32.828 244.411,35.276 C 244.699,37.652 243.943,38.768 243.511,38.048 C 243.007,37.256 242.251,34.844 241.387,30.668 L 241.387,30.668 C 241.639,33.332 241.639,35.204 241.387,36.284 C 241.028,37.328 240.091,37.904 239.696,37.04 C 239.263,36.032 239.011,33.872 238.94,30.561 L 238.94,30.561 C 238.364,33.477 238.003,35.061 237.572,35.169 C 237.212,35.205 236.78,33.909 236.564,31.137 L 236.564,31.137 C 235.771,32.397 235.267,32.865 234.908,32.685 C 234.475,32.505 234.332,31.533 234.332,29.913 L 234.332,29.913 C 235.844,29.553 237.068,28.689 238.148,27.321 C 239.12,25.845 239.948,24.045 240.488,21.525 L 240.488,21.525 C 240.883,22.244 241.279,23 241.711,23.756 L 241.711,23.756 z " style="fill:#ffffff;fill-rule:evenodd;stroke:#000000;stroke-width:0.036;stroke-miterlimit:10" id="path141"/>
	<path d="M 219.715,37.184 C 221.155,42.116 222.451,45.716 223.603,48.128 C 224.719,50.54 225.835,51.692 226.412,51.584 C 226.88,51.224 227.204,49.316 226.412,46.688 C 225.44,44.06 223.82,40.388 221.156,35.816 L 221.156,35.816 C 220.328,35.744 219.752,35.996 219.572,36.176 C 219.319,36.32 219.319,36.788 219.715,37.184 L 219.715,37.184 z " style="fill:#ffffff;fill-rule:evenodd;stroke:#000000;stroke-width:0.036;stroke-miterlimit:10" id="path143"/>
	<path d="M 221.803,35.492 C 222.343,36.968 222.991,38.048 223.603,38.732 C 224.215,39.38 225.223,39.704 225.511,39.416 C 225.656,38.984 225.44,38.228 224.719,36.716 L 224.719,36.716 C 225.799,37.94 226.519,38.48 226.736,38.192 C 226.88,37.832 226.664,36.788 225.944,34.916 L 225.944,34.916 C 227.276,35.888 228.175,36.464 229.076,37.04 C 229.904,37.508 230.515,38.372 230.767,37.832 C 230.948,37.256 230.515,35.924 229.868,33.692 L 229.868,33.692 C 230.912,35.708 231.559,36.716 232.099,36.716 C 232.495,36.536 232.639,34.304 232.675,33.476 C 232.747,32.684 232.531,32.036 232.316,31.82 L 232.316,31.82 C 233.143,35.78 233.755,37.508 234.007,37.292 C 234.259,37.004 234.223,34.664 233.9,30.128 L 233.9,30.128 C 233.395,30.092 232.712,30.092 231.992,30.128 C 231.2,30.092 230.263,30.092 229.183,30.128 L 229.183,30.128 C 227.816,31.028 226.627,31.928 225.62,32.684 C 224.612,33.331 223.496,34.232 222.956,34.7 C 222.343,35.168 221.911,35.384 221.803,35.492 L 221.803,35.492 z " style="fill:#ffffff;fill-rule:evenodd;stroke:#000000;stroke-width:0.036;stroke-miterlimit:10" id="path145"/>
	<path d="M 224.503,40.064 C 225.115,41.864 225.547,42.872 226.087,43.088 C 226.483,43.304 226.987,42.62 227.311,41.18 L 227.311,41.18 C 228.284,43.124 229.148,44.132 229.759,44.204 C 230.371,44.168 230.732,43.376 230.984,41.432 L 230.984,41.432 C 231.811,43.16 232.496,43.988 232.891,43.772 C 233.287,43.52 233.431,42.368 233.324,40.172 L 233.324,40.172 C 233.72,41 234.044,41.396 234.44,41.072 C 234.799,40.712 235.087,39.92 235.448,38.408 L 235.448,38.408 C 235.376,41.18 235.484,42.692 235.916,43.088 C 236.312,43.412 237.032,42.476 237.932,40.424 L 237.932,40.424 C 238.292,42.728 238.617,43.988 239.048,44.204 C 239.481,44.384 239.876,43.412 240.38,41.432 L 240.38,41.432 C 240.812,43.052 241.208,43.556 241.712,43.088 C 242.144,42.584 242.684,41.108 243.188,38.516 L 243.188,38.516 C 242.829,38.048 242.396,37.652 242.289,37.184 C 242.073,36.716 242.001,36.176 242.073,35.708 L 242.073,35.708 C 241.569,37.04 241.281,37.904 240.812,38.3 C 240.38,38.696 239.876,38.624 239.588,37.94 C 239.264,37.112 238.868,35.708 238.688,33.584 L 238.688,33.584 C 238.472,34.988 238.22,35.672 237.932,36.032 C 237.573,36.248 237.14,35.816 236.924,35.276 C 236.6,34.628 236.456,33.692 236.348,32.468 L 236.348,32.468 C 235.772,32.828 235.412,33.008 235.124,33.152 C 234.836,33.188 234.692,33.152 234.692,33.044 L 234.692,33.044 C 234.727,34.988 234.692,36.32 234.584,37.184 C 234.332,37.904 234.152,38.156 233.9,37.94 C 233.576,37.652 233.324,37.04 233,35.816 L 233,35.816 C 232.964,36.608 232.784,37.148 232.46,37.292 C 232.136,37.364 231.632,37.184 231.092,36.608 L 231.092,36.608 C 231.164,37.472 231.092,38.084 230.876,38.3 C 230.588,38.444 230.192,38.372 229.544,37.94 C 228.86,37.508 227.924,36.716 226.736,35.708 L 226.736,35.708 C 227.311,37.184 227.492,38.156 227.42,38.624 C 227.276,39.056 226.736,38.984 225.944,38.408 L 225.944,38.408 C 226.015,39.164 225.944,39.812 225.727,40.064 C 225.511,40.316 225.007,40.316 224.503,40.064 L 224.503,40.064 z " style="fill:#cab92d;fill-rule:evenodd;stroke:#000000;stroke-width:0.036;stroke-miterlimit:10" id="path147"/>
	<path d="M 226.519,44.096 C 227.347,46.724 228.175,48.884 228.86,50.576 C 229.507,52.232 230.156,53.708 230.66,54.032 C 231.128,54.104 231.848,52.772 231.992,51.584 C 232.064,50.396 231.884,48.992 231.307,47.228 L 231.307,47.228 C 233.251,50.864 234.511,52.484 235.232,52.484 C 235.916,52.304 236.024,50.504 235.555,46.688 L 235.555,46.688 C 237.068,48.416 238.112,49.172 238.687,48.812 C 239.192,48.416 239.372,47.048 238.94,44.564 L 238.94,44.564 C 238.58,44.852 238.148,44.816 238.04,44.312 C 237.824,43.844 237.752,42.908 237.824,41.648 L 237.824,41.648 C 237.32,42.692 237.032,43.232 236.564,43.664 C 236.095,44.06 235.555,44.096 235.339,43.772 C 235.087,43.304 235.015,42.368 235.123,40.964 L 235.123,40.964 C 234.979,41.54 234.799,41.828 234.583,41.972 C 234.295,42.008 234.079,41.864 233.791,41.54 L 233.791,41.54 C 233.791,42.656 233.719,43.269 233.575,43.772 C 233.323,44.132 232.89,44.24 232.567,44.096 C 232.098,43.88 231.739,43.52 231.199,42.872 L 231.199,42.872 C 230.911,43.988 230.623,44.492 230.191,44.78 C 229.758,45.032 229.147,44.348 228.751,44.096 C 228.283,43.628 227.923,43.16 227.527,42.404 L 227.527,42.404 C 227.455,42.944 227.419,43.196 227.419,43.556 C 227.311,43.808 227.239,43.988 227.203,44.096 C 227.023,44.168 226.843,44.168 226.519,44.096 L 226.519,44.096 z " style="fill:#ffffff;fill-rule:evenodd;stroke:#000000;stroke-width:0.036;stroke-miterlimit:10" id="path149"/>
	<path d="M 242.071,16.16 L 240.955,21.164 L 241.927,22.424 L 241.927,22.424 C 242.323,21.56 242.648,21.308 243.295,21.524 C 243.835,21.668 244.411,22.424 245.311,23.648 C 246.175,24.908 247.364,27.032 248.444,28.904 C 249.343,30.704 250.387,32.576 251,34.376 C 251.468,36.068 251.828,37.436 251.792,39.164 C 251.828,40.856 251.288,42.98 251,44.42 C 250.424,45.752 249.776,46.868 249.2,47.336 C 248.515,47.66 247.868,47.768 247.544,46.544 C 247.256,45.14 247.544,42.116 247.436,39.848 C 247.184,37.508 246.644,35.708 245.96,33.044 C 245.06,30.236 244.16,27.212 242.72,23.54 L 242.72,23.54 C 243.512,26.816 244.16,29.66 244.52,31.928 C 244.808,34.196 244.916,36.032 244.844,37.292 C 244.664,38.408 244.34,39.092 243.728,39.056 L 243.728,39.056 C 243.584,40.136 243.405,41.072 243.188,41.864 C 242.972,42.548 242.577,43.556 242.289,43.772 C 241.785,43.988 241.389,43.88 240.705,43.304 L 240.705,43.304 C 240.525,43.808 240.381,44.132 240.272,44.42 C 240.165,44.636 239.876,44.672 239.804,44.672 L 239.804,44.672 C 239.697,46.472 239.552,47.624 239.372,48.56 C 239.084,49.28 239.227,49.784 238.687,49.676 C 238.183,49.676 237.32,49.064 236.24,48.236 L 236.24,48.236 C 236.456,49.604 236.528,50.72 236.456,51.584 C 236.311,52.412 236.06,53.168 235.556,53.276 C 234.945,53.168 233.828,52.268 233.325,51.692 C 232.785,51.224 232.497,50.576 232.461,50.144 L 232.461,50.144 C 232.605,51.296 232.461,52.268 232.317,53.06 C 232.1,53.744 231.596,54.572 231.201,54.716 C 230.733,54.896 230.264,54.968 229.653,53.816 C 228.968,52.556 228.104,50.396 227.205,47.336 L 227.205,47.336 C 227.421,48.812 227.493,49.928 227.421,50.684 C 227.313,51.296 226.917,51.62 226.629,51.8 C 226.269,51.944 225.909,52.268 225.405,51.8 C 224.793,51.332 224.001,50.432 223.173,48.668 C 222.273,46.724 221.229,43.988 220.041,40.316 L 220.041,40.316 C 220.833,44.312 221.877,48.128 223.173,52.052 C 224.397,55.868 225.477,59.468 227.529,63.428 C 229.472,67.28 231.848,70.988 235.341,75.524 C 238.942,80.024 244.305,86.216 248.661,90.356 C 252.837,94.388 257.049,96.944 260.613,99.968 C 264.104,102.74 266.949,104.432 269.684,107.816 C 272.312,111.236 274.832,116.888 276.705,120.74 C 278.505,124.448 279.549,127.832 280.413,130.352 C 281.169,132.728 281.421,134.42 281.312,135.284 L 281.312,135.284 C 282.464,130.928 283.22,125.816 283.869,119.408 C 284.301,112.856 285.201,105.152 284.768,97.268 C 284.372,89.384 283.436,80.78 281.42,72.572 C 279.152,64.112 274.976,54.32 271.808,47.912 C 268.496,41.576 265.832,38.84 262.412,34.844 C 258.92,30.704 254.924,26.528 251.54,23.432 C 248.083,20.3 245.059,17.924 242.071,16.16 L 242.071,16.16 z " style="fill:#8f87c1;fill-rule:evenodd;stroke:#000000;stroke-width:0.036;stroke-miterlimit:10" id="path151"/>
	<path d="M 245.347,52.232 C 253.015,63.68 258.992,73.328 263.671,81.572 C 268.207,89.78 271.267,96.188 272.851,101.192 L 272.851,101.192 C 270.944,93.38 267.704,85.568 263.131,77.36 C 258.487,69.116 252.655,60.872 245.347,52.232 L 245.347,52.232 z " style="fill-rule:evenodd;stroke:#000000;stroke-width:0.036;stroke-miterlimit:10" id="path153"/>
	<path d="M 255.031,50.936 C 259.783,57.272 263.491,62.672 266.299,67.424 C 269.035,72.104 270.727,75.848 271.519,78.944 L 271.519,78.944 C 268.603,73.292 265.904,68.144 263.131,63.5 C 260.359,58.82 257.659,54.68 255.031,50.936 L 255.031,50.936 z " style="fill-rule:evenodd;stroke:#000000;stroke-width:0.036;stroke-miterlimit:10" id="path155"/>
	<path d="M 257.371,42.044 C 260.251,45.572 262.663,48.704 264.463,51.728 C 266.299,54.68 267.379,57.38 268.135,59.828 L 268.135,59.828 C 266.551,56.696 264.931,53.6 263.131,50.684 C 261.295,47.624 259.423,44.888 257.371,42.044 L 257.371,42.044 z " style="fill-rule:evenodd;stroke:#000000;stroke-width:0.036;stroke-miterlimit:10" id="path157"/>
	<path d="M 239.047,61.124 C 245.131,73.256 250.064,81.932 253.987,87.836 C 257.911,93.56 260.575,96.188 262.375,95.72 L 262.375,95.72 C 261.367,96.188 258.919,93.56 255.031,87.836 C 251.035,81.932 245.851,73.256 239.047,61.124 L 239.047,61.124 z " style="fill-rule:evenodd;stroke:#000000;stroke-width:0.036;stroke-miterlimit:10" id="path159"/>
	<path d="M 231.199,60.368 C 233.503,64.58 235.554,67.892 237.211,70.304 C 238.867,72.68 240.127,74.12 241.135,74.768 L 241.135,74.768 C 239.623,73.112 238.112,71.096 236.455,68.72 C 234.727,66.308 233.107,63.572 231.199,60.368 L 231.199,60.368 z " style="fill-rule:evenodd;stroke:#000000;stroke-width:0.036;stroke-miterlimit:10" id="path161"/>
	<path d="M 276.487,108.788 C 277.063,110.912 277.459,112.964 278.071,115.088 C 278.647,117.176 279.043,119.084 279.655,121.1 L 279.655,121.1 C 279.691,118.58 279.331,116.312 278.863,114.296 C 278.323,112.208 277.531,110.372 276.487,108.788 L 276.487,108.788 z " style="fill-rule:evenodd;stroke:#000000;stroke-width:0.036;stroke-miterlimit:10" id="path163"/>
	<path d="M 189.475,274.604 C 193.219,278.492 196.063,282.308 198.151,286.052 C 200.275,289.795 201.319,293.251 201.823,296.816 L 201.823,296.816 C 203.263,295.339 204.199,293.936 204.775,292.46 C 205.315,290.912 205.351,289.437 205.027,287.889 L 205.027,287.889 C 200.059,281.301 196.603,276.693 194.263,273.489 C 191.887,270.393 191.023,268.845 191.275,269.134 L 191.275,269.134 C 190.699,270.932 190.087,272.768 189.475,274.604 L 189.475,274.604 z " style="fill-rule:evenodd;stroke:#000000;stroke-width:0.036;stroke-miterlimit:10" id="path165"/>
	<path d="M 190.375,273.487 C 193.183,276.871 195.379,279.751 197.251,282.415 C 198.943,284.972 200.239,286.987 201.139,289.039 C 201.967,291.019 202.471,292.892 202.507,294.512 L 202.507,294.512 C 203.155,293.648 203.659,292.783 203.875,291.776 C 204.055,290.804 204.055,289.688 203.875,288.572 L 203.875,288.572 C 201.355,285.08 199.015,281.876 196.999,278.96 C 194.947,276.008 193.075,273.345 191.527,270.969 L 191.527,270.969 C 191.167,271.795 190.771,272.623 190.375,273.487 L 190.375,273.487 z " style="fill:#42713a;fill-rule:evenodd;stroke:#000000;stroke-width:0.036;stroke-miterlimit:10" id="path167"/>
	<path d="M 0.079,209.624 C 7.279,209.228 14.047,207.896 20.815,205.628 C 27.403,203.252 32.263,199.004 40.111,195.8 C 48.067,192.524 58.579,188.168 67.759,186.332 C 76.795,184.352 84.607,183.092 93.967,184.496 C 103.219,185.936 116.215,190.58 123.091,194.684 C 129.787,198.608 132.703,203.108 134.359,208.184 C 135.979,213.188 135.547,218.587 132.919,224.527 L 132.919,224.527 C 139.255,227.767 145.051,231.043 150.739,234.355 C 156.355,237.595 161.431,240.871 166.399,244.183 L 166.399,244.183 C 168.055,239.035 169.099,234.643 169.675,230.719 C 170.179,226.83 170.179,223.555 169.675,220.891 L 169.675,220.891 C 162.655,219.811 158.551,216.031 156.931,209.263 C 155.311,202.423 157.147,189.139 160.207,180.499 C 163.231,171.751 167.011,164.155 175.147,157.567 C 183.211,150.907 197.611,146.047 208.627,141.187 C 219.535,136.363 230.155,132.295 240.631,128.839 L 240.631,128.839 C 235.195,134.491 231.379,141.223 228.643,149.575 C 225.872,157.855 226.196,167.719 224.612,178.339 C 222.992,188.815 222.2,202.531 219.175,212.539 C 216.043,222.475 212.047,232.95 206.071,237.99 C 199.915,242.886 188.755,243.606 183.139,242.383 C 177.487,241.051 174.103,237.343 172.591,230.719 L 172.591,230.719 C 172.663,232.843 172.375,234.967 171.871,237.631 C 171.331,240.151 170.431,242.994 169.315,246.019 L 169.315,246.019 C 173.815,244.002 177.811,243.75 181.699,245.659 C 185.515,247.459 190.699,252.283 192.247,256.928 C 193.723,261.499 193.759,266.864 190.411,273.308 C 186.775,279.716 178.099,288.896 171.475,295.16 C 164.815,301.244 156.859,305.637 151.099,310.424 C 145.267,315.177 141.883,318.237 136.915,323.889 C 131.839,329.469 126.547,336.093 120.895,343.905 L 120.895,343.905 C 121.111,335.769 120.751,327.993 119.815,319.893 C 118.699,311.829 115.459,304.017 115.099,295.88 C 114.631,287.601 114.595,279.248 117.619,271.112 C 120.643,262.868 128.311,252.392 133.279,247.46 C 138.247,242.528 143.107,241.845 146.743,241.664 C 150.235,241.484 151.639,244.508 154.015,246.02 C 156.355,247.388 158.407,248.72 160.567,250.016 L 160.567,250.016 L 163.123,247.1 L 163.123,247.1 C 160.315,245.264 156.679,242.959 152.215,240.188 C 147.679,237.379 142.387,234.104 136.195,230.36 L 136.195,230.36 C 136.195,235.868 134.467,239.972 130.723,243.104 C 126.943,245.984 123.163,247.532 113.983,248.576 C 104.587,249.62 85.651,251.276 75.787,249.656 C 65.923,248 63.979,243.212 55.771,238.748 C 47.419,234.068 36.403,227.265 27.007,222.368 C 17.683,217.508 8.755,213.26 0.079,209.624 L 0.079,209.624 z " style="fill-rule:evenodd;stroke:#000000;stroke-width:0.036;stroke-miterlimit:10" id="path169"/>
	<path d="M 4.723,210.308 C 7.783,210.704 11.275,210.344 15.739,208.94 C 20.059,207.392 25.135,204.728 30.823,202.064 C 36.403,199.436 42.775,196.052 49.363,193.568 C 55.915,190.904 63.259,188.42 69.739,186.944 C 76.003,185.468 81.475,184.784 87.127,184.892 C 92.707,184.892 97.999,185.864 103.399,187.412 C 108.727,188.888 114.703,191.876 118.951,194.036 C 123.055,196.016 125.827,197.96 128.095,200.012 C 130.183,202.028 131.119,204.368 132.019,206.636 C 132.919,208.832 133.639,210.74 133.603,213.728 C 133.495,216.752 132.811,220.243 131.551,224.491 L 131.551,224.491 C 134.683,225.968 138.283,227.947 142.747,230.431 C 147.067,232.914 153.727,236.731 157.867,239.359 C 161.971,241.915 165.175,244.003 167.479,245.767 L 167.479,245.767 C 166.579,245.334 165.715,245.227 165.175,245.299 C 164.491,245.334 164.131,245.695 163.807,246.235 L 163.807,246.235 C 158.587,242.815 153.511,239.683 148.723,236.839 C 143.827,233.959 139.219,231.367 134.755,229.064 L 134.755,229.064 C 135.331,231.44 134.971,233.636 134.071,235.94 C 132.991,238.136 132.019,240.62 128.815,242.564 C 125.395,244.472 119.635,246.308 114.595,247.388 C 109.555,248.287 104.695,248.251 99.043,248.539 C 93.247,248.863 85.795,249.512 80.719,249.224 C 75.571,248.864 72.979,247.963 69.055,246.236 C 65.167,244.364 61.351,240.584 57.607,238.208 C 53.791,235.832 51.307,234.572 46.411,231.801 C 41.407,228.849 33.379,223.916 27.871,221.036 C 22.219,218.049 17.107,216.213 13.219,214.412 C 9.295,212.576 6.559,211.208 4.723,210.308 L 4.723,210.308 z " style="fill:#42713a;fill-rule:evenodd;stroke:#000000;stroke-width:0.036;stroke-miterlimit:10" id="path171"/>
	<path d="M 122.155,339.907 C 122.767,336.559 122.803,332.563 122.407,327.775 C 121.903,322.843 120.607,316.831 119.635,311.287 C 118.591,305.779 117.151,300.379 116.683,294.8 C 116.143,288.968 115.387,283.1 116.899,277.196 C 118.303,271.184 122.119,264.704 125.575,259.556 C 129.031,254.371 134.107,249.188 137.491,246.524 C 140.695,243.824 143.035,243.752 145.051,243.536 C 146.959,243.212 146.743,243.32 149.407,244.688 C 152.035,245.984 155.671,248.324 160.603,251.564 L 160.603,251.564 C 161.575,250.952 162.547,250.304 163.375,249.476 C 164.203,248.468 164.959,246.884 165.643,246.524 C 166.183,246.2 165.571,247.748 167.011,247.676 C 168.379,247.531 171.511,245.947 173.887,245.839 C 176.191,245.552 178.927,245.732 180.979,246.524 C 182.959,247.316 184.111,248.612 185.803,250.412 C 187.387,252.032 189.727,253.868 190.591,256.604 C 191.419,259.304 191.923,262.436 190.843,266.432 C 189.583,270.32 187.171,275.287 183.751,279.932 C 180.223,284.468 175.147,289.291 170.467,293.432 C 165.715,297.392 160.459,300.703 155.815,304.196 C 151.099,307.724 146.671,310.46 142.531,314.492 C 138.283,318.488 134.251,323.637 130.867,327.992 C 127.411,332.203 124.603,336.127 122.155,339.907 L 122.155,339.907 z " style="fill:#42713a;fill-rule:evenodd;stroke:#000000;stroke-width:0.036;stroke-miterlimit:10" id="path173"/>
	<path d="M 163.123,253.399 C 167.299,254.731 170.539,256.422 172.987,258.871 C 175.399,261.283 177.523,264.884 177.559,267.583 C 177.487,270.14 175.759,272.479 172.519,274.459 L 172.519,274.459 C 176.263,273.091 178.423,271.255 179.143,268.951 C 179.719,266.611 178.063,262.867 176.407,260.491 C 174.535,258.043 171.403,255.632 169.099,254.515 C 166.831,253.363 164.887,252.896 163.123,253.399 L 163.123,253.399 z " style="fill-rule:evenodd;stroke:#000000;stroke-width:0.036;stroke-miterlimit:10" id="path175"/>
	<path d="M 160.171,254.516 C 162.619,258.476 164.239,261.932 165.175,265.28 C 166.039,268.628 166.075,271.472 165.427,274.208 L 165.427,274.208 C 164.023,277.305 162.943,279.824 161.755,281.769 C 160.603,283.641 159.487,284.937 158.551,285.657 L 158.551,285.657 L 149.875,286.809 L 149.875,286.809 C 151.099,287.241 152.467,287.565 153.979,287.493 C 155.455,287.493 157.003,287.097 158.767,286.593 L 158.767,286.593 C 159.739,288.537 160.351,290.194 160.603,291.85 C 160.819,293.434 160.675,294.837 160.171,296.205 L 160.171,296.205 C 160.963,294.441 161.287,292.713 161.287,291.165 C 161.251,289.509 160.747,288.033 159.919,286.593 L 159.919,286.593 C 161.287,285.009 162.511,283.425 163.591,281.302 C 164.599,279.249 165.607,276.837 166.327,274.209 L 166.327,274.209 C 167.551,275.865 168.271,277.81 168.631,280.186 C 168.883,282.526 168.775,285.262 168.163,288.394 L 168.163,288.394 C 169.495,286.558 170.107,284.398 169.999,281.77 C 169.819,279.07 168.955,276.154 167.263,272.625 L 167.263,272.625 C 167.551,269.134 167.047,266.073 165.895,263.014 C 164.599,259.987 162.871,257.107 160.171,254.516 L 160.171,254.516 z " style="fill-rule:evenodd;stroke:#000000;stroke-width:0.036;stroke-miterlimit:10" id="path177"/>
	<path d="M 156.031,253.615 C 153.763,253.219 151.603,252.968 149.155,253.147 C 146.671,253.291 144.295,253.579 141.631,254.299 L 141.631,254.299 C 141.127,253.578 140.479,252.895 139.543,252.246 C 138.535,251.526 137.419,250.843 135.907,250.194 L 135.907,250.194 C 137.239,251.454 138.355,252.57 139.111,253.398 C 139.867,254.19 140.227,253.722 140.479,255.198 C 140.695,256.638 140.947,260.058 140.263,261.858 C 139.471,263.586 137.887,264.594 135.655,265.278 L 135.655,265.278 C 138.211,265.53 140.047,264.846 141.163,263.226 C 142.243,261.57 142.495,258.978 142.063,255.45 L 142.063,255.45 C 144.403,254.982 146.815,254.551 149.155,254.299 C 151.423,253.939 153.763,253.76 156.031,253.615 L 156.031,253.615 z " style="fill-rule:evenodd;stroke:#000000;stroke-width:0.036;stroke-miterlimit:10" id="path179"/>
	<path d="M 155.563,256.352 C 152.647,260.707 150.559,264.452 149.155,267.583 C 147.751,270.716 147.067,273.02 147.103,274.892 L 147.103,274.892 C 149.119,276.512 150.451,277.988 151.243,279.463 C 151.963,280.94 152.107,282.272 151.675,283.604 L 151.675,283.604 C 151.387,281.732 150.739,280.255 149.875,279.032 C 148.939,277.808 147.715,276.836 146.203,276.261 L 146.203,276.261 C 143.755,280.256 141.919,283.281 140.695,285.872 C 139.471,288.32 138.859,290.084 138.859,291.164 L 138.859,291.164 C 138.751,292.568 138.931,293.864 139.543,295.484 C 140.119,296.96 141.739,299.444 142.315,300.308 C 142.783,301.1 142.783,301.1 142.315,300.308 L 142.315,300.308 C 144.259,299.768 145.807,298.652 147.103,297.104 C 148.327,295.52 149.299,293.503 149.875,290.912 L 149.875,290.912 C 150.127,292.964 149.947,294.872 148.939,296.637 C 147.931,298.437 146.383,299.949 144.151,301.46 L 144.151,301.46 C 144.043,302.54 144.547,303.225 145.519,303.513 C 146.455,303.729 147.859,303.62 149.875,303.044 L 149.875,303.044 C 148.759,304.521 147.607,305.168 146.419,305.132 C 145.159,305.097 144.259,304.448 142.747,302.612 C 141.235,300.56 139.363,297.644 137.275,293.432 L 137.275,293.432 C 136.267,294.583 134.719,295.627 132.235,296.419 C 129.715,297.176 124.063,299.083 122.623,298.255 C 121.147,297.356 122.479,293.863 123.307,291.379 C 123.919,288.716 125.071,285.691 127.195,283.136 C 129.283,280.543 132.307,278.384 136.123,276.26 L 136.123,276.26 C 135.907,273.703 134.791,272.119 132.919,271.22 C 130.975,270.32 128.275,270.247 124.675,271.003 L 124.675,271.003 C 125.755,270.211 127.087,269.707 128.815,269.636 C 130.507,269.419 133.135,269.276 134.755,270.32 C 136.267,271.328 137.167,273.164 137.743,275.828 L 137.743,275.828 L 142.747,274.46 L 142.747,274.46 C 138.607,276.368 135.547,277.988 133.135,279.464 C 130.723,280.761 129.895,281.336 128.563,283.137 C 127.123,284.973 125.503,288.212 124.675,290.481 C 123.703,292.641 122.299,295.197 123.091,296.205 C 123.811,297.033 127.015,296.709 129.247,296.205 C 131.335,295.809 134.251,295.161 135.907,293.434 C 137.491,291.417 136.915,288.142 138.643,284.974 C 140.227,281.806 142.639,278.421 145.735,274.678 L 145.735,274.678 C 145.627,271.545 146.347,268.629 148.039,265.533 C 149.731,262.437 152.107,259.375 155.563,256.352 L 155.563,256.352 z " style="fill-rule:evenodd;stroke:#000000;stroke-width:0.036;stroke-miterlimit:10" id="path181"/>
	<path d="M 139.795,312.907 C 139.039,311.539 137.995,310.819 136.807,310.603 C 135.547,310.387 134.143,310.819 132.451,311.754 L 132.451,311.754 C 131.947,310.818 131.947,309.343 132.451,306.931 C 132.883,304.483 133.927,301.494 135.439,297.571 L 135.439,297.571 C 133.639,300.379 132.595,302.899 131.767,305.131 C 131.011,307.327 130.939,309.776 130.867,310.819 C 130.687,311.755 130.687,311.755 130.867,310.819 L 130.867,310.819 C 129.499,310.171 128.203,310.387 126.979,311.071 C 125.755,311.755 124.603,313.123 123.523,315.175 L 123.523,315.175 C 124.891,313.878 126.115,313.086 127.195,312.654 C 128.203,312.186 129.211,312.186 129.931,312.654 L 129.931,312.654 C 129.463,315.786 129.391,318.234 129.715,319.998 C 130.003,321.799 130.687,322.77 131.767,323.202 L 131.767,323.202 C 131.083,321.511 130.651,319.782 130.615,318.162 C 130.543,316.542 130.723,314.887 131.299,313.338 L 131.299,313.338 C 132.775,312.618 134.179,312.294 135.655,312.223 C 137.059,312.151 138.391,312.331 139.795,312.907 L 139.795,312.907 z " style="fill-rule:evenodd;stroke:#000000;stroke-width:0.036;stroke-miterlimit:10" id="path183"/>
	<path d="M 122.407,297.787 C 121.795,298.975 121.687,300.596 121.939,302.359 C 122.155,304.087 122.839,306.247 123.991,308.551 L 123.991,308.551 C 123.487,306.786 123.055,305.13 122.839,303.294 C 122.551,301.495 122.407,299.659 122.407,297.787 L 122.407,297.787 z " style="fill-rule:evenodd;stroke:#000000;stroke-width:0.036;stroke-miterlimit:10" id="path185"/>
	<path d="M 121.255,219.631 C 117.223,216.104 112.543,212.864 106.819,209.768 C 100.987,206.636 94.471,202.82 87.127,201.092 C 79.819,199.184 71.863,198.68 63.115,199.04 L 63.115,199.04 C 66.391,198.392 69.703,198.032 73.195,198.104 C 76.615,198.104 80.071,198.536 83.707,199.256 L 83.707,199.256 C 80.935,198.032 79.279,196.304 79.135,194.216 C 78.955,191.984 79.891,189.536 82.339,186.44 L 82.339,186.44 C 81.439,188.636 80.899,190.328 80.719,191.912 C 80.395,193.316 80.287,194.144 80.971,195.368 C 81.655,196.52 83.023,197.744 85.075,199.04 L 85.075,199.04 C 88.603,199.292 92.419,200.228 96.523,201.992 C 100.627,203.756 104.875,206.06 109.555,209.336 L 109.555,209.336 C 110.095,206.276 109.771,203.432 108.439,200.408 C 107.035,197.348 104.875,194.504 101.563,191.48 L 101.563,191.48 C 104.659,193.496 106.819,195.476 108.439,197.42 C 109.879,199.292 110.311,201.056 110.707,203.144 C 111.067,205.232 111.067,207.392 110.707,209.768 L 110.707,209.768 C 113.155,211.244 115.387,212.648 117.115,214.376 C 118.807,216.068 120.283,217.688 121.255,219.631 L 121.255,219.631 z " style="fill-rule:evenodd;stroke:#000000;stroke-width:0.036;stroke-miterlimit:10" id="path187"/>
	<path d="M 128.347,220.1 C 129.067,215.024 129.355,211.028 128.815,207.716 C 128.275,204.476 127.123,202.064 125.359,200.624 L 125.359,200.624 C 127.843,200.84 129.463,202.64 129.931,205.88 C 130.363,209.156 129.931,213.764 128.347,220.1 L 128.347,220.1 z " style="fill-rule:evenodd;stroke:#000000;stroke-width:0.036;stroke-miterlimit:10" id="path189"/>
	<path d="M 127.663,225.104 C 121.363,222.44 113.983,220.208 104.983,218.264 C 95.839,216.212 82.159,214.556 74.095,213.44 C 66.103,212.288 60.451,211.892 57.139,211.856 L 57.139,211.856 C 55.951,209.408 54.583,207.464 53.035,205.88 C 51.379,204.224 49.543,203.108 47.527,202.244 L 47.527,202.244 C 49.723,203.36 51.559,204.728 53.035,206.348 C 54.511,207.932 55.483,209.768 56.239,211.856 L 56.239,211.856 C 53.503,211.568 49.003,211.208 42.739,211.172 C 36.367,211.028 28.375,211.028 18.475,211.172 L 18.475,211.172 C 29.851,211.316 40.867,211.892 52.351,212.756 C 63.691,213.584 73.807,214.304 86.443,216.428 C 99.043,218.479 112.651,221.323 127.663,225.104 L 127.663,225.104 z " style="fill-rule:evenodd;stroke:#000000;stroke-width:0.036;stroke-miterlimit:10" id="path191"/>
	<path d="M 120.571,226.039 C 116.683,227.839 112.327,229.063 107.503,229.711 C 102.535,230.287 97.387,230.287 91.483,229.711 L 91.483,229.711 C 92.599,227.875 93.139,226.111 93.103,224.419 C 92.995,222.619 92.347,221.035 91.015,219.379 L 91.015,219.379 C 91.735,221.287 92.095,223.123 91.951,224.888 C 91.807,226.652 91.195,228.127 90.115,229.711 L 90.115,229.711 C 86.695,229.892 83.419,229.1 80.287,226.94 C 77.083,224.816 74.023,221.54 71.107,217.112 L 71.107,217.112 C 70.603,217.76 70.783,218.768 71.791,220.531 C 72.691,222.26 74.419,224.347 76.831,227.191 L 76.831,227.191 C 72.979,229.063 70.099,230.754 67.903,232.663 C 65.599,234.428 63.583,236.264 63.799,238.171 C 63.979,240.007 65.851,241.915 69.271,243.896 L 69.271,243.896 C 66.823,241.52 65.527,239.576 65.383,237.919 C 65.167,236.228 66.139,235.724 68.155,234.031 C 70.135,232.267 73.303,230.179 77.515,227.623 L 77.515,227.623 C 78.415,228.523 79.567,229.243 80.971,229.928 C 82.339,230.539 83.887,231.116 85.759,231.512 L 85.759,231.512 C 85.363,234.572 84.427,236.768 82.555,238.64 C 80.683,240.368 78.091,241.556 74.779,242.06 L 74.779,242.06 C 77.551,241.988 79.639,241.808 81.187,241.375 C 82.735,241.016 82.771,241.052 83.923,239.539 C 84.931,237.884 86.083,235.255 87.379,231.512 L 87.379,231.512 C 90.007,231.692 92.239,231.98 94.471,231.98 C 96.559,231.98 98.467,231.908 100.195,231.764 L 100.195,231.764 C 98.467,235.148 96.523,237.74 94.219,239.539 C 91.807,241.375 89.395,242.275 86.443,242.527 L 86.443,242.527 C 87.451,242.995 88.747,243.067 90.331,242.743 C 91.879,242.347 93.715,241.627 95.839,240.439 L 95.839,240.439 C 96.055,241.987 96.775,243.103 98.143,244.327 C 99.439,245.407 101.383,246.379 103.831,247.099 L 103.831,247.099 C 101.275,245.659 99.331,244.363 98.143,243.21 C 96.883,241.95 96.343,241.015 96.523,240.006 L 96.523,240.006 C 98.251,237.775 99.331,236.191 100.195,234.715 C 100.951,233.311 101.203,232.194 101.095,231.511 L 101.095,231.511 C 106.819,230.899 111.319,230.143 114.595,229.242 C 117.871,228.271 119.815,227.3 120.571,226.039 L 120.571,226.039 z " style="fill-rule:evenodd;stroke:#000000;stroke-width:0.036;stroke-miterlimit:10" id="path193"/>
	<path d="M 83.491,201.992 C 81.151,201.812 79.207,202.352 77.515,203.612 C 75.787,204.8 74.347,206.708 73.195,209.336 L 73.195,209.336 C 74.851,207.212 76.471,205.484 78.199,204.296 C 79.891,203.036 81.655,202.316 83.491,201.992 L 83.491,201.992 z " style="fill-rule:evenodd;stroke:#000000;stroke-width:0.036;stroke-miterlimit:10" id="path195"/>
	<path d="M 61.063,215.744 L 54.871,218.012 L 54.871,218.012 C 50.983,216.716 47.743,216.14 45.007,216.428 C 42.163,216.716 39.571,218.012 38.599,219.631 C 37.663,221.071 38.023,222.98 39.535,225.356 L 39.535,225.356 C 38.959,223.304 38.959,221.648 39.535,220.532 C 40.003,219.344 40.939,218.804 42.739,218.48 C 44.467,218.084 47.923,217.652 50.047,218.012 C 52.027,218.228 53.611,218.839 55.087,219.848 C 56.563,220.784 58.759,221.755 58.759,223.736 C 58.579,225.572 57.103,228.02 54.187,231.08 L 54.187,231.08 C 56.095,230.324 57.499,229.28 58.543,228.092 C 59.443,226.725 60.487,225.321 60.127,223.737 C 59.731,222.189 58.507,220.641 56.455,218.949 L 56.455,218.949 C 57.967,217.904 59.515,216.824 61.063,215.744 L 61.063,215.744 z " style="fill-rule:evenodd;stroke:#000000;stroke-width:0.036;stroke-miterlimit:10" id="path197"/>
	<path d="M 53.035,202.676 C 54.979,202.532 56.347,201.56 57.139,200.156 C 57.931,198.716 58.039,196.448 57.607,193.748 L 57.607,193.748 C 59.047,196.448 59.227,198.716 58.543,200.156 C 57.751,201.56 55.915,202.532 53.035,202.676 L 53.035,202.676 z " style="fill-rule:evenodd;stroke:#000000;stroke-width:0.036;stroke-miterlimit:10" id="path199"/>
	<path d="M 171.151,219.812 C 169.855,219.631 168.451,219.164 166.795,218.408 C 165.031,217.58 162.871,217.293 161.287,215.204 C 159.559,212.936 157.471,209.588 156.967,205.592 C 156.427,201.524 157.435,196.232 158.335,191.66 C 159.091,187.016 159.991,183.308 162.007,178.592 C 163.951,173.84 166.543,168.008 170.215,163.724 C 173.743,159.44 177.235,156.668 183.751,153.176 C 190.339,149.54 200.275,146.156 209.383,142.448 C 218.383,138.704 227.491,134.888 237.283,131 L 237.283,131 C 234.547,133.772 232.315,136.976 230.443,141.044 C 228.535,145.004 227.13,149.072 226.087,154.796 C 224.863,160.52 224.648,167.504 223.783,174.92 C 222.846,182.228 222.306,191.156 221.047,198.5 C 219.751,205.7 218.419,212.036 216.223,218.191 C 213.919,224.275 211.471,231.043 207.764,234.895 C 203.984,238.567 197.792,239.502 194.048,240.619 C 190.376,241.627 187.892,241.663 185.336,241.304 C 182.42,240.835 180.044,240.547 177.776,238.352 C 175.616,236.083 173.744,232.7 172.304,228.056 L 172.304,228.056 C 172.34,230.396 171.98,232.988 171.368,235.831 C 170.684,238.711 169.748,241.627 168.416,244.976 L 168.416,244.976 L 167.264,244.291 L 167.264,244.291 C 168.488,241.052 169.352,238.1 170,235.579 C 170.504,232.915 170.756,231.583 170.9,228.955 C 171.007,226.255 171.223,223.339 171.151,219.812 L 171.151,219.812 z " style="fill:#42713a;fill-rule:evenodd;stroke:#000000;stroke-width:0.036;stroke-miterlimit:10" id="path201"/>
	<path d="M 175.039,218.407 C 176.155,217.471 177.991,216.716 180.547,216.139 C 182.959,215.527 186.667,216.211 190.159,214.987 C 193.651,213.763 197.431,211.675 201.355,208.579 C 205.207,205.339 208.951,201.235 213.019,195.979 L 213.019,195.979 C 209.492,201.919 205.963,206.527 202.291,209.947 C 198.475,213.259 194.551,215.167 191.059,216.355 C 187.567,217.471 184.039,216.679 181.447,217.039 C 178.747,217.436 176.659,217.76 175.039,218.407 L 175.039,218.407 z " style="fill-rule:evenodd;stroke:#000000;stroke-width:0.036;stroke-miterlimit:10" id="path203"/>
	<path d="M 174.823,221.863 C 178.135,224.023 181.339,225.499 184.867,226.435 C 188.251,227.371 191.815,227.623 195.415,227.334 L 195.415,227.334 C 198.007,225.715 199.987,224.095 201.355,222.33 C 202.651,220.458 203.335,218.803 203.407,216.823 L 203.407,216.823 C 204.199,218.767 204.055,220.675 202.975,222.546 C 201.787,224.418 199.699,226.254 196.567,228.055 L 196.567,228.055 C 197.467,229.855 197.791,231.475 197.683,233.311 C 197.503,235.111 196.819,236.731 195.631,238.567 L 195.631,238.567 C 196.387,236.983 196.819,235.327 196.783,233.743 C 196.747,232.052 196.243,230.431 195.415,228.739 L 195.415,228.739 C 192.103,229.459 188.791,229.135 185.335,228.055 C 181.879,226.939 178.423,224.779 174.823,221.863 L 174.823,221.863 z " style="fill-rule:evenodd;stroke:#000000;stroke-width:0.036;stroke-miterlimit:10" id="path205"/>
	<path d="M 176.407,211.316 L 181.447,204.008 L 181.447,204.008 C 187.243,203.18 192.426,201.704 196.999,199.436 C 201.535,197.204 205.387,194.18 208.699,190.508 L 208.699,190.508 C 205.855,193.172 202.363,195.584 197.935,197.6 C 193.435,199.58 188.431,201.308 182.347,202.64 L 182.347,202.64 C 186.019,196.124 191.167,188.204 197.935,178.592 C 204.703,168.908 212.803,157.964 222.631,145.184 L 222.631,145.184 C 218.491,148.747 213.127,154.904 206.395,164.192 C 199.591,173.516 187.315,192.02 182.347,200.12 C 177.307,207.932 175.327,211.712 176.407,211.316 L 176.407,211.316 z " style="fill-rule:evenodd;stroke:#000000;stroke-width:0.036;stroke-miterlimit:10" id="path207"/>
	<path d="M 175.039,201.668 C 172.339,201.452 170.359,200.372 169.099,197.996 C 167.767,195.62 167.155,192.236 167.263,187.7 L 167.263,187.7 C 164.995,188.168 163.591,187.88 162.907,186.548 C 162.187,185.18 162.259,183.02 163.123,179.924 L 163.123,179.924 C 162.835,182.804 163.087,184.604 163.591,185.864 C 164.059,186.944 165.067,187.052 166.327,186.764 C 167.623,186.476 169.243,186.764 170.899,184.028 C 172.375,181.184 173.779,176.504 175.255,169.844 L 175.255,169.844 C 174.967,175.388 174.283,179.456 173.203,182.444 C 172.015,185.36 170.467,186.908 168.415,187.232 L 168.415,187.232 C 167.551,189.716 167.695,192.164 168.847,194.576 C 169.963,197.024 171.979,199.292 175.039,201.668 L 175.039,201.668 z " style="fill-rule:evenodd;stroke:#000000;stroke-width:0.036;stroke-miterlimit:10" id="path209"/>
	<path d="M 180.295,192.056 C 180.619,188.168 181.339,183.848 182.599,178.556 C 183.787,173.3 185.515,167.396 187.639,160.7 L 187.639,160.7 C 190.051,161.348 191.959,161.24 193.363,160.232 C 194.659,159.116 195.631,157.46 195.883,154.724 L 195.883,154.724 C 195.559,156.74 194.767,158.324 193.363,159.08 C 191.887,159.8 189.943,160.088 187.387,159.548 L 187.387,159.548 C 185.155,164.408 183.571,169.376 182.347,174.884 C 181.159,180.356 180.475,185.936 180.295,192.056 L 180.295,192.056 z " style="fill-rule:evenodd;stroke:#000000;stroke-width:0.036;stroke-miterlimit:10" id="path211"/>
	<path d="M 212.803,171.428 C 216.799,172.22 218.816,173.948 218.995,176.468 C 219.031,178.988 217.447,182.3 213.703,186.548 L 213.703,186.548 C 217.051,184.172 219.139,181.832 220.111,179.672 C 220.974,177.368 220.399,174.632 219.211,173.264 C 218.023,171.86 215.791,171.248 212.803,171.428 L 212.803,171.428 z " style="fill-rule:evenodd;stroke:#000000;stroke-width:0.036;stroke-miterlimit:10" id="path213"/>
	<path d="M 203.875,163.436 L 205.927,152.672 L 205.927,152.672 C 204.163,154.076 202.939,154.76 201.823,154.724 C 200.707,154.616 199.987,153.824 199.519,152.204 L 199.519,152.204 C 200.167,153.428 201.211,153.968 202.507,153.824 C 203.803,153.608 205.351,152.816 207.295,151.304 L 207.295,151.304 C 206.179,155.336 205.027,159.368 203.875,163.436 L 203.875,163.436 z " style="fill-rule:evenodd;stroke:#000000;stroke-width:0.036;stroke-miterlimit:10" id="path215"/>
</g>
<metadata><rdf:RDF><cc:Work><dc:format>image/svg+xml</dc:format><dc:type rdf:resource="http://purl.org/dc/dcmitype/StillImage"/><cc:license rdf:resource="http://creativecommons.org/licenses/publicdomain/"/><dc:publisher><cc:Agent rdf:about="http://openclipart.org/"><dc:title>Open Clip Art Library</dc:title></cc:Agent></dc:publisher><dc:title>clematis occidentalis</dc:title><dc:date>2006-10-03T12:23:03</dc:date><dc:description>As observed in the woods.</dc:description><dc:source>http://openclipart.org/detail/310/clematis-occidentalis-by-gerald_g</dc:source><dc:creator><cc:Agent><dc:title>Gerald_G</dc:title></cc:Agent></dc:creator><dc:subject><rdf:Bag><rdf:li>clip art</rdf:li><rdf:li>clipart</rdf:li><rdf:li>flower</rdf:li><rdf:li>nature</rdf:li><rdf:li>outline</rdf:li><rdf:li>plant</rdf:li><rdf:li>wild</rdf:li></rdf:Bag></dc:subject></cc:Work><cc:License rdf:about="http://creativecommons.org/licenses/publicdomain/"><cc:permits rdf:resource="http://creativecommons.org/ns#Reproduction"/><cc:permits rdf:resource="http://creativecommons.org/ns#Distribution"/><cc:permits rdf:resource="http://creativecommons.org/ns#DerivativeWorks"/></cc:License></rdf:RDF></metadata></svg>
